<?xml version="1.0" standalone="no"?>
<!DOCTYPE svg PUBLIC "-//W3C//DTD SVG 1.1//EN" "http://www.w3.org/Graphics/SVG/1.1/DTD/svg11.dtd" >
<svg xmlns="http://www.w3.org/2000/svg" xmlns:xlink="http://www.w3.org/1999/xlink" version="1.1">
<metadata>
Created by FontForge 20150102 at Wed Jan  7 06:46:29 2015
 By uniteet7
Copr.1993 Erik Spiekermann
</metadata>
<defs>
<font id="MetaPlus" horiz-adv-x="507" >
  <font-face 
    font-family="MetaPlus"
    font-weight="400"
    font-stretch="normal"
    units-per-em="1000"
    panose-1="2 0 5 6 5 0 0 2 0 4"
    ascent="800"
    descent="-200"
    x-height="498"
    cap-height="686"
    bbox="-98 -208 1172 925"
    underline-thickness="20"
    underline-position="-132"
    unicode-range="U+0005-2122"
  />
<missing-glyph horiz-adv-x="500" 
 />
    <glyph glyph-name=".notdef" horiz-adv-x="500" 
 />
    <glyph glyph-name=".null" horiz-adv-x="0" 
 />
    <glyph glyph-name="nonmarkingreturn" horiz-adv-x="225" 
 />
    <glyph glyph-name="space" unicode=" " horiz-adv-x="225" 
 />
    <glyph glyph-name="space" unicode="&#xa0;" horiz-adv-x="225" 
 />
    <glyph glyph-name="breve" horiz-adv-x="402" 
d="M334 737l-135 -85l-139 85l-36 -44l171 -135l170 135z" />
    <glyph glyph-name="dotaccent" horiz-adv-x="249" 
d="M63 651q0 -25 17.5 -42.5t43.5 -17.5t43.5 17.5t17.5 43.5t-17.5 43.5t-43.5 17.5t-43.5 -18t-17.5 -44z" />
    <glyph glyph-name="ring" horiz-adv-x="315" 
d="M261 659q0 22 -8.5 41t-23 33.5t-34 23t-40.5 8.5t-40 -8.5t-33.5 -23t-22.5 -33.5t-8 -41t8.5 -41t23 -33.5t33.5 -23t41 -8.5q21 0 40 8.5t33.5 23t22.5 33.5t8 41zM154 719q26 0 44 -18t18 -42t-18 -42t-41 -18q-24 0 -42 18t-18 42t17 42t40 18z" />
    <glyph glyph-name="hungarumlaut" unicode="&#xa;" horiz-adv-x="428" 
d="M44 545l50 -21l117 198l-81 33zM204 561l44 -31l154 173l-74 47z" />
    <glyph glyph-name="ogonek" horiz-adv-x="429" 
d="M191 17q-9 -7 -20 -19t-21 -28.5t-17 -36.5t-7 -43q0 -35 25 -61t73 -26q23 0 45 8t37 16l-21 47q-20 -9 -32 -11.5t-29 -2.5q-18 0 -27 11t-9 25q0 19 8.5 35.5t18.5 29t18.5 20l8.5 7.5z" />
    <glyph glyph-name="caron" horiz-adv-x="402" 
d="M334 737q-6 -5 -20.5 -15.5t-33 -21.5t-40 -19.5t-41.5 -8.5q-24 0 -46 8t-40.5 18.5t-32 21.5t-20.5 17l-36 -44q5 -7 21.5 -26t40 -38.5t52 -35t57.5 -15.5t57.5 15.5t51.5 35t39.5 38.5t21.5 26z" />
    <glyph glyph-name="dotlessi" unicode="&#xd;" horiz-adv-x="249" 
d="M81 0h84v509l-84 -13v-496z" />
    <glyph glyph-name="fraction" horiz-adv-x="339" 
d="M-98 -154h66l527 917h-66z" />
    <glyph glyph-name="fi" horiz-adv-x="549" 
d="M364 650q0 -25 17.5 -42.5t43.5 -17.5t43.5 17.5t17.5 43.5t-17.5 43.5t-43.5 17.5t-43.5 -18t-17.5 -44zM383 0h83v498h-294v77q0 88 68 88q20 0 40 -7.5t34 -15.5l29 55q-44 29 -110 29q-53 0 -88 -26q-8 -6 -17.5 -15.5t-18 -24t-14 -34.5t-5.5 -48v-78h-48v-59h48
v-439h82v439h211v-439z" />
    <glyph glyph-name="fl" horiz-adv-x="542" 
d="M343 695q-44 29 -110 29q-53 0 -88 -26q-8 -6 -17.5 -15.5t-18 -24t-14 -34.5t-5.5 -48v-78h-48v-59h48v-439h82v439h114l24 59h-138v77q0 88 68 88q20 0 40 -7.5t34 -15.5zM377 573v-491q0 -27 5 -43t19 -28q22 -21 59 -21q16 0 25.5 2t24.5 9l-16 51l-4 -1t-6 -1
q-17 0 -22.5 10.5t-5.5 39.5v473q0 71 -4.5 111t-7.5 48l-81 -16q4 -15 7 -28.5t4.5 -29.5t2 -36.5t0.5 -48.5z" />
    <glyph glyph-name="exclam" unicode="!" horiz-adv-x="266" 
d="M180 699l-98 -13l19 -488h60zM193 56q0 25 -17.5 42.5t-43.5 17.5t-43.5 -17.5t-17.5 -43.5t17.5 -44t43.5 -18t43.5 18.5t17.5 44.5z" />
    <glyph glyph-name="quotedbl" unicode="&#x22;" horiz-adv-x="519" 
d="M150 468h72v240h-72v-240zM297 468h72v240h-72v-240z" />
    <glyph glyph-name="numbersign" unicode="#" horiz-adv-x="556" 
d="M98 0h67l30 213h126l-30 -213h67l30 213h108v66h-98l21 152h107v66h-98l30 211h-67l-30 -211h-126l30 211h-67l-30 -211h-108v-66h98l-20 -152h-108v-66h98zM331 279h-126l21 152h126z" />
    <glyph glyph-name="dollar" unicode="$" horiz-adv-x="554" 
d="M245 -107h59v97q43 6 79.5 24.5t63 46.5t41.5 62t15 71q0 32 -12 64.5t-33 56.5t-48 39.5t-73 29.5l-33 10v239q36 -3 68.5 -16t75.5 -41l36 59q-84 57 -180 65v83h-59v-84q-87 -9 -138.5 -61.5t-51.5 -133.5q0 -66 43 -112q20 -20 47.5 -33t74.5 -28l25 -8v-269
q-49 0 -91 15t-84 44l-36 -64q49 -30 100 -46t111 -16v-94zM245 412q-54 20 -77.5 45t-23.5 64q0 45 26.5 73.5t74.5 36.5v-219zM304 304q108 -38 108 -122q0 -23 -8 -44t-22 -37.5t-34 -27.5t-44 -15v246z" />
    <glyph glyph-name="percent" unicode="%" horiz-adv-x="831" 
d="M221 0h66l333 681h-66zM480 162q0 -80 43 -126t118 -46t118 44.5t43 121.5q0 78 -39.5 127t-122.5 49q-75 0 -117.5 -45t-42.5 -125zM639 277q32 0 51 -11t29 -29t13 -40.5t3 -44.5q0 -53 -24 -80t-67 -27q-54 0 -75 31.5t-21 93.5q0 51 21.5 79t69.5 28zM34 521
q0 -80 43 -126t118 -46t118 44.5t43 121.5q0 78 -39.5 127t-122.5 49q-75 0 -117.5 -45t-42.5 -125zM193 636q32 0 51 -11t29 -29t13 -40.5t3 -44.5q0 -53 -24 -80t-67 -27q-54 0 -75 31.5t-21 93.5q0 51 21.5 79t69.5 28z" />
    <glyph glyph-name="ampersand" unicode="&#x26;" horiz-adv-x="687" 
d="M503 332q1 -40 -1 -82.5t-16 -71.5l-161 159q34 18 61 35.5t45 36.5t27.5 41.5t9.5 51.5q0 37 -15 66t-40 48.5t-58.5 29.5t-70.5 10q-35 0 -67.5 -12t-57 -33t-39 -50t-14.5 -63q0 -38 24 -74t73 -80q-33 -16 -59 -33t-44 -37.5t-27.5 -45.5t-9.5 -58q0 -41 16 -75
t46 -58.5t73 -38t97 -13.5q60 0 113 21.5t83 58.5l67 -65h104l-127 126q8 16 15 33.5t12 40.5t7.5 55t2.5 77h-69zM280 380q-28 24 -45.5 42t-27.5 32t-13.5 27t-3.5 27q0 24 8 41t21.5 28.5t30.5 16.5t35 5q43 0 70 -27t27 -69q0 -36 -21.5 -65.5t-80.5 -57.5zM448 110
q-20 -26 -60 -45t-91 -19q-69 0 -108.5 32.5t-39.5 85.5q0 91 101 139z" />
    <glyph glyph-name="quotesingle" unicode="'" horiz-adv-x="278" 
d="M103 468h72v240h-72v-240z" />
    <glyph glyph-name="parenleft" unicode="(" horiz-adv-x="320" 
d="M237 -3q-35 62 -47.5 145.5t-12.5 180.5q0 66 6.5 125t19.5 105q19 67 57 108t89 71l-19 38q-37 -14 -73.5 -42t-64.5 -63q-22 -27 -39.5 -60t-30 -74.5t-19 -93t-6.5 -116.5q0 -30 2 -64.5t6.5 -70.5t12.5 -71t19 -64q29 -74 79.5 -128t113.5 -78l22 40q-40 22 -67 48.5
t-48 63.5z" />
    <glyph glyph-name="parenright" unicode=")" horiz-adv-x="322" 
d="M85 620q35 -62 47.5 -145.5t12.5 -180.5q0 -66 -6.5 -125t-19.5 -105q-19 -67 -57 -108t-89 -71l19 -38q37 14 73.5 42t64.5 63q22 27 39.5 60t30 74.5t19 93t6.5 116.5q0 30 -2 64.5t-6.5 70.5t-12.5 71t-19 64q-29 74 -79.5 128t-113.5 78l-22 -40q40 -22 67 -48.5
t48 -63.5z" />
    <glyph glyph-name="asterisk" unicode="*" horiz-adv-x="444" 
d="M252 708h-60v-149l-142 48l-19 -58l141 -48l-87 -119l50 -38l87 123l90 -123l49 38l-89 119l141 48l-19 58l-142 -48v149z" />
    <glyph glyph-name="plus" unicode="+" horiz-adv-x="500" 
d="M36 214h178v-178h72v178h178v72h-178v178h-72v-178h-178v-72z" />
    <glyph glyph-name="comma" unicode="," horiz-adv-x="267" 
d="M85 -143q23 13 46 31t38 38q18 24 28 50.5t10 52.5q0 42 -22 69t-57 27q-29 0 -49.5 -21t-20.5 -51q0 -26 16 -45t39 -19q5 0 8 0.5l3 0.5q-8 -60 -67 -89z" />
    <glyph glyph-name="hyphen" unicode="-" horiz-adv-x="302" 
d="M57 229h191v76h-191v-76z" />
    <glyph glyph-name="period" unicode="." horiz-adv-x="266" 
d="M66 56q0 -29 19.5 -49t48.5 -20q27 0 46.5 20t19.5 49q0 28 -19.5 47t-48.5 19q-28 0 -47 -19t-19 -47z" />
    <glyph glyph-name="slash" unicode="/" horiz-adv-x="449" 
d="M62 -148h66l259 905h-66z" />
    <glyph glyph-name="zero" unicode="0" horiz-adv-x="535" 
d="M271 -17q51 0 92 18t70 51.5t45 82t16 109.5t-15 110.5t-44 83.5t-70.5 52.5t-95.5 18.5q-51 0 -92 -18t-70 -52t-45 -82t-16 -109q0 -62 15 -111t44 -83t70.5 -52.5t95.5 -18.5zM128 261q0 95 35.5 139t104.5 44q76 0 110 -50t34 -163q0 -95 -35.5 -139t-104.5 -44
q-76 0 -110 50t-34 163z" />
    <glyph glyph-name="one" unicode="1" horiz-adv-x="409" 
d="M47 391l17 -43q35 14 69.5 28.5t66.5 35.5v-349h-92v-63h263v63h-92v444h-61z" />
    <glyph glyph-name="two" unicode="2" horiz-adv-x="535" 
d="M262 64q-26 0 -55.5 -1t-47.5 -3l90 65q55 39 93.5 71.5t62.5 61.5t35 57t11 59q0 34 -13.5 61t-37.5 45.5t-56.5 28t-71.5 9.5q-55 0 -104 -22t-106 -71l32 -40q26 19 47.5 31.5t40 20t36 10.5t34.5 3q51 0 78.5 -22.5t27.5 -64.5q0 -18 -4 -34.5t-13.5 -33t-25.5 -33.5
t-41 -38l-121 -101q-16 -13 -34.5 -28t-29.5 -23t-13 -9v-63h382l16 64h-212z" />
    <glyph glyph-name="three" unicode="3" horiz-adv-x="535" 
d="M164 180h46q42 0 70 -5.5t54 -24.5q17 -12 30.5 -35t13.5 -57q0 -31 -13.5 -64t-44.5 -60.5t-80 -45t-119 -17.5q-30 0 -46 1.5l-16 1.5l18 -53l13 -1.5t36 -1.5q58 0 117 12t110 42q24 14 44.5 33t35.5 42.5t24 49.5t9 54q0 54 -36.5 96t-102.5 57q57 16 89 55t32 93
q0 36 -14 66t-39.5 51.5t-60 33.5t-76.5 12q-57 0 -108.5 -22t-99.5 -61l35 -41q27 18 48.5 29.5t40.5 18t36 9t34 2.5q54 0 86.5 -29.5t32.5 -78.5q0 -40 -21 -68t-68 -35q-9 -1 -27 -1.5t-36.5 -1t-32.5 -0.5h-14v-56z" />
    <glyph glyph-name="four" unicode="4" horiz-adv-x="535" 
d="M42 62v-62h258q10 0 25 0.5l15 0.5l-0.5 -15.5t-0.5 -24.5v-160l77 23v148q0 10 -0.5 19.5l-0.5 9.5l9.5 -0.5t17.5 -0.5h55v63h-49q-11 0 -22 -1l-11 -1l0.5 19.5t0.5 58.5v201l-62 -19l-10 -140q-2 -21 -3 -48t-1 -42v-29h-177q-14 0 -26.5 -1.5l-12.5 -1.5
q1 2 7.5 12.5t17 30t19.5 36.5l191 374h-87z" />
    <glyph glyph-name="five" unicode="5" horiz-adv-x="535" 
d="M83 161q22 10 56 16t71 6q70 0 109.5 -33.5t39.5 -96.5q0 -38 -16.5 -71.5t-46 -58t-69 -38.5t-84.5 -14q-25 0 -43 4t-32 10l14 -60q20 -5 35.5 -7.5t38.5 -2.5q58 0 110.5 17t92 48t63 75t23.5 98q0 46 -16.5 81.5t-44.5 59.5t-66 36.5t-81 12.5q-25 0 -46.5 -2.5
l-21.5 -2.5l17 194h213l12 66h-296z" />
    <glyph glyph-name="six" unicode="6" horiz-adv-x="535" 
d="M145 518q-49 -59 -72.5 -122t-23.5 -141q0 -62 16 -112t45.5 -85.5t71 -55t92.5 -19.5q47 0 87 16.5t69.5 46t46.5 69t17 86.5q0 48 -17.5 85t-46 61.5t-64 37.5t-71.5 13q-41 0 -80.5 -14t-65.5 -38l2.5 11.5t8 29.5t14.5 40t22 42q16 25 40 50.5t54.5 48.5t66.5 42
t77 32l-19 50q-74 -22 -141.5 -62t-128.5 -112zM279 338q53 0 89 -35t36 -104q0 -72 -35 -113.5t-95 -41.5q-62 0 -98 49q-19 25 -27 59.5t-8 81.5q0 18 1.5 34.5l1.5 16.5q32 26 66.5 39.5t68.5 13.5z" />
    <glyph glyph-name="seven" unicode="7" horiz-adv-x="535" 
d="M318 432q17 0 39.5 0.5t36.5 1t16 0.5q-41 -43 -89 -114t-96 -159q-15 -29 -37 -72.5t-43 -91.5t-38 -95t-22 -84l96 25q7 33 19.5 71t27.5 77t31.5 75t31.5 64q79 151 179 289l19 79h-416l-19 -66h264z" />
    <glyph glyph-name="eight" unicode="8" horiz-adv-x="535" 
d="M375 372q95 53 95 141q0 34 -14 62t-39 48t-60.5 31t-78.5 11q-102 0 -156.5 -46t-54.5 -120q0 -48 30.5 -88.5t87.5 -66.5q-24 -9 -49 -23.5t-45.5 -36t-33.5 -50.5t-13 -66t14.5 -70t43 -58t69.5 -39.5t95 -14.5q52 0 94 15.5t71 42.5t45 62t16 74q0 45 -23.5 83.5
t-80.5 64.5l-53 24l12.5 6t27.5 14zM279 376q-44 17 -71 34t-41.5 33.5t-19 32t-4.5 30.5q0 47 34 74.5t91 27.5q58 0 92 -27.5t34 -73.5q0 -36 -27 -67.5t-88 -63.5zM386 235q13 -14 18.5 -33.5t5.5 -40.5q0 -53 -38 -86t-100 -33q-67 0 -107.5 35.5t-40.5 95.5
q0 30 8.5 52t23.5 39t35 30.5t43 25.5q66 -30 100.5 -48.5t51.5 -36.5z" />
    <glyph glyph-name="nine" unicode="9" horiz-adv-x="535" 
d="M70 -207q30 3 67.5 15t76.5 32t76 47.5t67 62.5q59 68 92.5 151t33.5 168q0 57 -16.5 102t-45.5 76.5t-68 48.5t-84 17q-47 0 -88 -17t-71 -47t-47.5 -71t-17.5 -89q0 -46 15 -84.5t41.5 -66t63 -43t80.5 -15.5q34 0 69.5 12.5t58.5 29.5q-14 -41 -41 -85t-75 -85
q-24 -20 -52 -39t-58 -34t-60 -25t-57 -13zM255 140q-57 0 -90 39.5t-33 111.5t36 116t96 44q30 0 54.5 -13.5t42 -37.5t27 -57.5t9.5 -74.5q0 -20 -2 -38t-6 -35q-35 -29 -67 -42t-67 -13z" />
    <glyph glyph-name="colon" unicode=":" horiz-adv-x="302" 
d="M85 55q0 -28 19 -47.5t47 -19.5q29 0 48.5 19.5t19.5 48.5q0 28 -19.5 47.5t-46.5 19.5q-29 0 -48.5 -19.5t-19.5 -48.5zM85 370q0 -28 19.5 -47t47.5 -19t47.5 19.5t19.5 48.5q0 28 -19.5 47.5t-46.5 19.5q-29 0 -48.5 -20t-19.5 -49z" />
    <glyph glyph-name="semicolon" unicode=";" horiz-adv-x="303" 
d="M79 374q0 -29 20 -50t48 -21t47.5 20t19.5 49q0 27 -20 46.5t-48 19.5t-47.5 -19t-19.5 -45zM107 -143q23 13 46 31t38 38q18 24 28 50.5t10 52.5q0 42 -22 69t-57 27q-29 0 -49.5 -21t-20.5 -51q0 -26 16 -45t39 -19q5 0 8 0.5l3 0.5q-8 -60 -67 -89z" />
    <glyph glyph-name="less" unicode="&#x3c;" horiz-adv-x="1142" 
d="M595 274q0 -20 14 -34t34 -14t33.5 14.5t13.5 34.5t-14 34t-34 14t-33.5 -14.5t-13.5 -34.5zM1029 274q0 -20 14 -34t34 -14t33.5 14.5t13.5 34.5t-14 34t-34 14t-33.5 -14.5t-13.5 -34.5zM884 274q0 -20 14 -34t34 -14t34 14.5t14 34.5t-14.5 34t-34.5 14t-33.5 -14.5
t-13.5 -34.5zM740 274q0 -20 14 -34t34 -14t33.5 14.5t13.5 34.5t-14 34t-34 14t-33.5 -14.5t-13.5 -34.5zM184 513q0 -20 14 -34.5t34 -14.5t33.5 14.5t13.5 34.5t-14 34.5t-34 14.5t-33.5 -14.5t-13.5 -34.5zM267 631q0 -20 14 -34.5t34 -14.5t33.5 14.5t13.5 34.5
t-14.5 34.5t-34.5 14.5q-19 0 -32.5 -14.5t-13.5 -34.5zM101 395q0 -20 14 -34.5t34 -14.5t33.5 14.5t13.5 34.5t-14 34.5t-34 14.5t-33.5 -14.5t-13.5 -34.5zM18 277q0 -20 14 -34.5t34 -14.5t33.5 14.5t13.5 34.5t-14 34.5t-34 14.5t-33.5 -14.5t-13.5 -34.5zM161 274
q0 -20 14 -34t34 -14t33.5 14.5t13.5 34.5t-14 34t-34 14t-33.5 -14.5t-13.5 -34.5zM450 274q0 -20 14 -34t34 -14t34 14.5t14 34.5t-14.5 34t-34.5 14t-33.5 -14.5t-13.5 -34.5zM306 274q0 -20 14 -34t34 -14t33.5 14.5t13.5 34.5t-14 34t-34 14t-33.5 -14.5t-13.5 -34.5z
M279 41q0 20 -13.5 34t-33.5 14t-34 -14t-14 -34t13.5 -34.5t33.5 -14.5t34 14.5t14 34.5zM362 -77q0 20 -13.5 34t-33.5 14t-34 -14t-14 -34t13.5 -34.5t32.5 -14.5q20 0 34.5 14.5t14.5 34.5zM196 159q0 20 -13.5 34.5t-33.5 14.5t-34 -14.5t-14 -34.5t13.5 -34.5
t33.5 -14.5t34 14.5t14 34.5z" />
    <glyph glyph-name="equal" unicode="=" horiz-adv-x="666" 
d="M72 348h522v66h-522v-66zM72 192h522v66h-522v-66z" />
    <glyph glyph-name="greater" unicode="&#x3e;" horiz-adv-x="1142" 
d="M452 275q0 -20 13.5 -34.5t33.5 -14.5t34 14t14 34t-13.5 34.5t-33.5 14.5t-34 -14t-14 -34zM18 275q0 -20 13.5 -34.5t33.5 -14.5t34 14t14 34t-13.5 34.5t-33.5 14.5t-34 -14t-14 -34zM162 275q0 -20 14 -34.5t34 -14.5t34 14t14 34t-13.5 34.5t-33.5 14.5t-34.5 -14
t-14.5 -34zM307 275q0 -20 13.5 -34.5t33.5 -14.5t34 14t14 34t-13.5 34.5t-33.5 14.5t-34 -14t-14 -34zM863 513q0 -20 13.5 -34.5t33.5 -14.5t34 14.5t14 34.5t-13.5 34.5t-33.5 14.5t-34 -14.5t-14 -34.5zM780 631q0 -20 13.5 -34.5t33.5 -14.5t34 14.5t14 34.5
t-13.5 34.5t-33.5 14.5t-34 -14.5t-14 -34.5zM946 395q0 -20 13.5 -34.5t33.5 -14.5t34 14.5t14 34.5t-13.5 34.5t-33.5 14.5t-34 -14.5t-14 -34.5zM1029 277q0 -20 13.5 -34.5t33.5 -14.5t34 14.5t14 34.5t-13.5 34.5t-33.5 14.5t-34 -14.5t-14 -34.5zM886 275
q0 -20 13.5 -34.5t33.5 -14.5t34 14t14 34t-13.5 34.5t-33.5 14.5t-34 -14t-14 -34zM596 275q0 -20 14 -34.5t34 -14.5t34 14t14 34t-13.5 34.5t-33.5 14.5t-34.5 -14t-14.5 -34zM741 275q0 -20 13.5 -34.5t33.5 -14.5t34 14t14 34t-13.5 34.5t-33.5 14.5t-34 -14t-14 -34z
M958 41q0 20 -14 34t-34 14t-33.5 -14t-13.5 -34t14 -34.5t34 -14.5t33.5 14.5t13.5 34.5zM875 -77q0 20 -14 34t-34 14t-33.5 -14t-13.5 -34t14 -34.5t34 -14.5t33.5 14.5t13.5 34.5zM1041 159q0 20 -14 34.5t-34 14.5t-33.5 -14.5t-13.5 -34.5t14 -34.5t34 -14.5
t33.5 14.5t13.5 34.5z" />
    <glyph glyph-name="question" unicode="?" horiz-adv-x="430" 
d="M272 386q6 5 23 17t35.5 32t32.5 48t14 65q0 67 -42.5 107t-111.5 40q-49 0 -99 -16t-85 -43l33 -55q37 23 68.5 34.5t67.5 11.5q39 0 64.5 -23t25.5 -60q0 -26 -8.5 -43t-22 -29.5t-29 -23.5t-30.5 -25q-43 -41 -52 -92t5 -109h67q-25 109 44 164zM134 55q0 -29 20 -49
t48 -20t47.5 20t19.5 49q0 28 -20 47.5t-48 19.5t-47.5 -19.5t-19.5 -47.5z" />
    <glyph glyph-name="at" unicode="@" horiz-adv-x="800" 
d="M619 550h-65l-18 -63h-2q-17 45 -46.5 63.5t-64.5 18.5q-53 0 -96 -24.5t-73.5 -64.5t-47 -91t-16.5 -103q0 -33 10 -61t28.5 -49t44.5 -33t58 -12q44 0 73 19.5t52 46.5h2q2 -34 20 -50t44 -16q35 0 76 21t76 59t58.5 91t23.5 118q0 67 -27 123.5t-73.5 97t-107.5 63
t-130 22.5q-77 0 -145 -29t-119 -79t-80.5 -118t-29.5 -146t29 -145.5t79.5 -118t118.5 -79.5t147 -29q49 0 95 12t87 34.5t75 55t58 73.5h-63q-41 -55 -109 -88t-143 -33q-62 0 -118 24.5t-98 67.5t-67 101t-25 125q0 64 24 122t65.5 101.5t97.5 69t121 25.5q52 0 101 -18
t87 -51.5t61 -81t23 -106.5q0 -42 -13 -81t-33 -69.5t-45 -49t-49 -18.5q-8 0 -14 2t-8.5 9.5t-1 21.5t8.5 37zM262 293q0 33 12 69.5t33.5 68t51 52t64.5 20.5q16 0 30.5 -7.5t25.5 -20.5t18 -30t7 -36q0 -31 -12 -68t-33 -69t-49 -53.5t-61 -21.5q-38 0 -62.5 27t-24.5 69
z" />
    <glyph glyph-name="A" unicode="A" horiz-adv-x="571" 
d="M233 686l-229 -686h83l66 211h256l65 -211h93l-227 686h-107zM175 278l108 336l105 -336h-213z" />
    <glyph glyph-name="B" unicode="B" horiz-adv-x="598" 
d="M92 0h177q38 0 63.5 1t43.5 3.5t31 6.5t27 9q51 20 79 65.5t28 102.5q0 38 -14 76t-48 64q-17 14 -37.5 22t-52.5 14q59 19 91 57.5t32 92.5q0 53 -32 96t-85 61q-13 4 -27.5 7t-36.5 5t-55.5 2.5t-84.5 0.5h-99v-686zM268 617q26 0 43.5 -1t31.5 -5q35 -9 56.5 -38
t21.5 -70q0 -28 -11 -53q-8 -17 -17 -28.5t-22.5 -18.5t-33 -9.5t-47.5 -2.5h-119v226h97zM292 323q26 0 46 -2t34 -5q37 -8 60 -42t23 -79q0 -62 -31 -95t-107 -33h-146v256h121z" />
    <glyph glyph-name="C" unicode="C" horiz-adv-x="550" 
d="M338 695q-62 0 -115 -26.5t-91.5 -74t-60 -112.5t-21.5 -141q0 -77 19 -144t63 -117q40 -45 92 -68t108 -23q51 0 100 14.5t91 41.5l-44 55q-33 -23 -64.5 -33.5t-69.5 -10.5q-59 0 -108.5 31.5t-75.5 96.5q-12 30 -17 62.5t-5 82.5q0 61 7 104t22 78q25 58 67 88t102 30
q38 0 68.5 -10t61.5 -33l44 53q-35 27 -79 41.5t-94 14.5z" />
    <glyph glyph-name="D" unicode="D" horiz-adv-x="631" 
d="M92 0h179q36 0 66 4t55.5 14t48.5 26.5t46 41.5q35 38 56.5 101.5t21.5 154.5q0 101 -28.5 175t-87.5 116q-25 18 -48 28.5t-48 16t-55 7t-69 1.5h-137v-686zM256 619q27 0 49 -2.5t41.5 -9t36.5 -19t34 -32.5q34 -41 46.5 -94t12.5 -130q0 -54 -11.5 -103t-34.5 -89
q-14 -24 -33 -38.5t-41.5 -22t-47.5 -9.5t-52 -2h-82v551h82z" />
    <glyph glyph-name="E" unicode="E" horiz-adv-x="513" 
d="M92 0h385v71h-302v251h235v71h-235v225h281l11 68h-375v-686z" />
    <glyph glyph-name="F" unicode="F" horiz-adv-x="449" 
d="M92 0h83v326h220v67h-220v225h265l13 68h-361v-686z" />
    <glyph glyph-name="G" unicode="G" horiz-adv-x="624" 
d="M339 694q-107 0 -179 -65q-54 -48 -80 -118.5t-26 -169.5q0 -89 20.5 -153.5t64.5 -112.5q80 -86 211 -86q53 0 104.5 14t88.5 38v320h-231l16 -68h138v-209q-44 -27 -109 -27q-24 0 -49 5t-47 14.5t-40 23t-30 30.5q-23 34 -35.5 87t-12.5 121q0 97 27 174q21 60 66 88
t105 28q40 0 73.5 -12t75.5 -41l37 51q-79 68 -188 68z" />
    <glyph glyph-name="H" unicode="H" horiz-adv-x="635" 
d="M92 0h80v332h289v-332h82v686h-82v-287h-289v287h-80v-686z" />
    <glyph glyph-name="I" unicode="I" horiz-adv-x="264" 
d="M92 0h80v686h-80v-686z" />
    <glyph glyph-name="J" unicode="J" horiz-adv-x="271" 
d="M97 115q0 -53 -3.5 -80.5t-13.5 -44.5q-11 -20 -32.5 -38t-49.5 -29l40 -51q82 28 116 88q8 14 13 28t7.5 32t3.5 41t1 56v569h-82v-571z" />
    <glyph glyph-name="K" unicode="K" horiz-adv-x="551" 
d="M83 0h83v686h-83v-686zM170 363l262 -363h105l-274 364l276 322h-105z" />
    <glyph glyph-name="L" unicode="L" horiz-adv-x="458" 
d="M92 0h342l11 69h-271v617h-82v-686z" />
    <glyph glyph-name="M" unicode="M" horiz-adv-x="799" 
d="M66 0h79l38 488q1 16 2.5 38.5t2.5 43.5t2 36l1 15l8.5 -38t25.5 -96l136 -487h70l147 512q6 22 12.5 48t10 42t4.5 18l0.5 -12t1 -30t1.5 -38.5t2 -36.5l40 -503h82l-59 686h-121l-129 -456q-6 -21 -10.5 -41.5t-8 -36t-5 -25l-1.5 -9.5l-6.5 35t-20.5 85l-125 448h-120
z" />
    <glyph glyph-name="N" unicode="N" horiz-adv-x="640" 
d="M92 0h85l-4 398q0 33 -1.5 66.5t-3 60.5t-3 43.5l-1.5 16.5l6 -14t16.5 -37.5t24.5 -53t31 -60.5l220 -420h86v686h-81l3 -373q0 -37 1.5 -74.5t3 -67.5t3 -48.5l1.5 -18.5l-5 13t-13.5 33.5t-20.5 46t-25 51.5l-228 438h-95v-686z" />
    <glyph glyph-name="O" unicode="O" horiz-adv-x="668" 
d="M57 346q0 -178 82 -272q35 -40 83.5 -63.5t111.5 -23.5q54 0 95 15.5t79 50.5q52 48 76 114t24 165q0 83 -15 144.5t-47 109.5q-12 18 -31 38t-45 36.5t-60.5 27t-79.5 10.5q-63 0 -114 -24.5t-86 -70t-54 -110.5t-19 -147zM483 538q17 -36 25 -89t8 -129q0 -42 -3 -74.5
t-9 -57.5t-15.5 -44t-22.5 -35q-23 -29 -54.5 -44t-73.5 -15q-21 0 -43 5.5t-41.5 15t-35.5 23t-26 30.5q-20 35 -32 98t-12 141q0 64 8.5 109.5t26.5 79.5q20 37 59.5 58.5t87.5 21.5q60 0 97.5 -28t55.5 -66z" />
    <glyph glyph-name="P" unicode="P" horiz-adv-x="544" 
d="M92 0h80v273h120q53 0 92 11.5t74 42.5q34 31 48 70.5t14 92.5q0 106 -88 164q-28 18 -61 25t-89 7h-190v-686zM259 617q49 0 79 -8t51 -26q40 -34 40 -109q0 -58 -35 -97q-17 -20 -40 -28.5t-67 -8.5h-115v277h87z" />
    <glyph glyph-name="Q" unicode="Q" horiz-adv-x="668" 
d="M481 538q17 -36 25.5 -89t8.5 -129q0 -41 -3 -73t-9.5 -57t-16 -45t-22.5 -36q-23 -30 -54 -44.5t-73 -14.5q-45 0 -85.5 20t-60.5 54q-20 35 -32.5 98t-12.5 141q0 64 9 109.5t28 79.5q20 36 58.5 58t86.5 22q33 0 57.5 -8t43 -21.5t31.5 -30.5t21 -34zM470 -72
q12 -8 28 -17t33.5 -16.5t35.5 -13t34 -5.5q41 0 59 9l27 65q-4 -2 -15.5 -3.5t-25.5 -1.5q-31 0 -54.5 10t-37.5 18q-20 11 -45.5 25.5t-46.5 21.5q23 14 44 33q52 49 76.5 114.5t24.5 164.5q0 83 -15.5 143.5t-47.5 110.5q-14 22 -34.5 42.5t-47.5 36t-60.5 24.5t-73.5 9
q-63 0 -114 -24.5t-86 -70t-54 -110.5t-19 -147q0 -177 83 -272q31 -35 77 -61t110 -26q28 -5 47 -11t35 -12.5t30.5 -15.5t32.5 -20z" />
    <glyph glyph-name="R" unicode="R" horiz-adv-x="570" 
d="M92 0h82v310q25 -1 40.5 -10t35.5 -34q34 -44 63 -84.5t51.5 -75t37.5 -62t23 -44.5h103q-1 2 -13.5 20.5t-33.5 50t-42.5 63.5t-40.5 59.5t-28 39.5q-11 14 -28 35.5t-41 41.5h10q41 0 74.5 13.5t57.5 38t37 59.5t13 77q0 27 -6.5 49.5t-16 40.5t-21.5 31.5t-24 22.5
q-12 10 -27.5 18t-36 14t-47.5 9t-62 3h-160v-686zM254 617q28 0 48.5 -3.5t37.5 -10.5q29 -12 48 -41t19 -63t-9 -60.5t-26 -42.5q-20 -18 -49 -26.5t-75 -8.5h-73v256h79z" />
    <glyph glyph-name="S" unicode="S" horiz-adv-x="563" 
d="M284 701q-50 0 -91 -14.5t-70 -40.5t-45 -62t-16 -80q0 -66 43 -112q20 -21 47.5 -34t74.5 -27l69 -21q123 -37 123 -128q0 -61 -49 -98q-22 -17 -46 -23.5t-63 -6.5q-52 0 -96.5 14t-87.5 45l-36 -64q51 -32 104.5 -47t115.5 -15q48 0 84 10t70 32q46 29 70.5 73
t24.5 92q0 32 -12 64.5t-33 56.5t-48 39.5t-73 29.5l-79 25q-61 20 -87.5 45t-26.5 67q0 53 36 83t101 30q22 0 41.5 -3t39 -10t40.5 -18t46 -27l36 59q-98 66 -207 66z" />
    <glyph glyph-name="T" unicode="T" horiz-adv-x="494" 
d="M23 617h184v-617h79v617h186l5 69h-454v-69z" />
    <glyph glyph-name="U" unicode="U" horiz-adv-x="631" 
d="M88 194q0 -23 3 -52.5t17 -54.5q28 -51 75.5 -75t127.5 -24q63 0 105.5 13t74.5 40q31 26 41.5 60.5t10.5 96.5v488h-81v-478q0 -35 -4.5 -59.5t-21.5 -47.5q-16 -21 -47 -32t-74 -11q-32 0 -55 6t-39 16t-25.5 22t-14.5 23q-7 16 -9.5 44.5t-2.5 54.5v462h-81v-492z" />
    <glyph glyph-name="V" unicode="V" horiz-adv-x="569" 
d="M241 0h81l235 686h-84l-147 -450q-18 -56 -28.5 -93t-13.5 -50q-1 7 -4.5 23.5t-9 38t-12.5 45t-14 46.5l-145 440h-89z" />
    <glyph glyph-name="W" unicode="W" horiz-adv-x="825" 
d="M189 0h106l84 387q8 36 14.5 70.5t11 60.5t7 42l2.5 16l2 -15t6.5 -41.5t11.5 -62t16 -76.5l85 -381h107l157 686h-82l-85 -398q-8 -39 -15.5 -77t-13 -68t-8.5 -48.5l-3 -18.5l-2 14t-6.5 38.5t-11 58.5t-15.5 73l-95 426h-93l-91 -411q-7 -30 -14 -65t-12.5 -64.5
t-9 -49.5l-3.5 -20l-3 20t-8 50.5t-12 67.5t-14 71l-87 401h-88z" />
    <glyph glyph-name="X" unicode="X" horiz-adv-x="541" 
d="M210 368l-203 -368h96l161 315l170 -315h99l-216 374l172 312h-96l-131 -254l-137 254h-97z" />
    <glyph glyph-name="Y" unicode="Y" horiz-adv-x="523" 
d="M218 272v-272h85v267l223 419h-94l-132 -262q-15 -30 -26 -53.5l-11 -23.5q-1 1 -5 11t-12.5 28.5t-17.5 37.5l-130 262h-101z" />
    <glyph glyph-name="Z" unicode="Z" horiz-adv-x="496" 
d="M44 617h256q32 0 51.5 0.5l19.5 0.5l-12 -17t-32 -49l-293 -489v-63h407l21 70h-272q-23 0 -41 -0.5l-18 -0.5l12.5 18.5t29.5 47.5l285 481v70h-391z" />
    <glyph glyph-name="bracketleft" unicode="[" horiz-adv-x="259" 
d="M193 732h-165v-888h165v60h-93v768h93v60z" />
    <glyph glyph-name="backslash" unicode="\" horiz-adv-x="370" 
d="M304 -43l63 25l-301 768l-63 -24z" />
    <glyph glyph-name="bracketright" unicode="]" horiz-adv-x="259" 
d="M66 672h93v-768h-93v-60h165v888h-165v-60z" />
    <glyph glyph-name="asciicircum" unicode="^" horiz-adv-x="666" 
d="M80 275h74l179 349l179 -349h74l-223 433h-60z" />
    <glyph glyph-name="underscore" unicode="_" horiz-adv-x="500" 
d="M0 -125h500v50h-500v-50z" />
    <glyph glyph-name="grave" unicode="`" horiz-adv-x="338" 
d="M82 742l-43 -77l224 -100l26 47z" />
    <glyph glyph-name="a" unicode="a" 
d="M105 388q12 11 30.5 21.5t40 19t44.5 13.5t44 5q23 0 39 -6.5t28 -20.5q11 -12 13.5 -28.5t2.5 -49.5v-35l-9.5 0.5t-25.5 0.5q-126 0 -195 -47t-69 -132q0 -25 7.5 -50.5t26 -45.5t49.5 -33t77 -13q43 0 75.5 15.5t68.5 51.5q7 -26 24.5 -45.5t43.5 -27.5l40 56
q-14 7 -22 16t-12.5 22.5t-5.5 33.5t0 50l4 164q1 34 -1 62t-10 48q-32 78 -138 78q-109 0 -209 -67zM342 123q-17 -35 -50 -56.5t-71 -21.5q-86 0 -86 91q0 28 9 50.5t29 37.5t53 23t80 8q11 0 20 -0.5t19 -1.5z" />
    <glyph glyph-name="b" unicode="b" horiz-adv-x="545" 
d="M84 614v-490q0 -51 -3.5 -78.5t-11.5 -45.5h78q8 15 10 26.5t4 27.5q21 -28 59.5 -47t77.5 -19q45 0 81.5 19.5t62.5 54.5t40 84.5t14 109.5q0 58 -13.5 105t-38.5 80t-60.5 50.5t-80.5 17.5q-40 0 -73 -15.5t-70 -51.5l1 18t1 37v116q0 57 -6.5 87.5l-6.5 30.5l-78 -15
l6.5 -26.5t6.5 -75.5zM161 373q20 28 54 46.5t71 18.5q29 0 54.5 -11.5t39.5 -31.5q16 -22 22.5 -53t6.5 -81q0 -63 -10.5 -101.5t-24.5 -58.5t-39 -32t-51 -12q-35 0 -69 17t-54 43v256z" />
    <glyph glyph-name="c" unicode="c" horiz-adv-x="440" 
d="M261 511q-77 0 -135 -58q-32 -32 -53.5 -81t-21.5 -131q0 -56 11.5 -98.5t36.5 -78.5q52 -75 159 -75q47 0 82 15.5t70 50.5l-43 50q-45 -54 -107 -54q-60 0 -91.5 44t-31.5 129q0 111 28 163q14 26 39.5 41t54.5 15t49 -9t46 -31l43 54q-27 22 -58 38t-78 16z" />
    <glyph glyph-name="d" unicode="d" horiz-adv-x="545" 
d="M381 730v-209q0 -17 0.5 -36t0.5 -29v-12q-23 30 -58 46.5t-77 16.5q-27 0 -49.5 -7t-46.5 -24q-103 -71 -103 -231q0 -120 53 -186t150 -66q44 0 74.5 13.5t57.5 44.5q1 -20 6 -35.5l5 -15.5h80q-8 22 -11.5 59t-3.5 102v556zM380 127l-7 -12.5t-23 -23.5
q-24 -17 -44.5 -24.5t-51.5 -7.5q-35 0 -59 13.5t-41 44.5q-12 22 -16 54t-4 76q0 53 7 84t25 60q32 52 93 52q45 0 73.5 -13t47.5 -39v-264z" />
    <glyph glyph-name="e" unicode="e" 
d="M286 54q-38 0 -70.5 14.5t-53.5 46.5q-13 20 -18 47t-5 62v12h311v11q-1 45 -4 77t-9.5 56t-17 42t-26.5 35q-52 54 -135 54q-90 0 -149 -69q-32 -38 -46 -81.5t-14 -106.5q0 -124 58.5 -194.5t162.5 -70.5q48 0 91.5 16t76.5 46l-30 50q-51 -47 -122 -47zM254 450
q29 0 53 -12t37 -32q11 -18 16.5 -44t6.5 -67h-228q6 155 115 155z" />
    <glyph glyph-name="f" unicode="f" horiz-adv-x="294" 
d="M343 695q-44 29 -110 29q-53 0 -88 -26q-8 -6 -17.5 -15.5t-18 -24t-14 -34.5t-5.5 -48v-78h-48v-59h48v-439h82v439h114l24 59h-138v77q0 88 68 88q20 0 40 -7.5t34 -15.5z" />
    <glyph glyph-name="g" unicode="g" horiz-adv-x="518" 
d="M399 480q-23 0 -39 4.5t-31.5 9.5t-34.5 9.5t-47 4.5q-41 0 -75 -12t-58 -34.5t-37.5 -53.5t-13.5 -68q0 -50 30.5 -89t81.5 -55q-51 -16 -70.5 -35.5t-19.5 -49.5q0 -34 24.5 -53t69.5 -19h16t21 0.5t21 0.5h19q37 0 60.5 -4t37.5 -14q27 -18 27 -60q0 -47 -31.5 -67
t-89.5 -20q-30 0 -56.5 6t-44.5 17q-29 18 -29 58q0 12 4.5 24.5t9.5 20.5l-82 -7q-5 -15 -7.5 -27t-2.5 -26q0 -27 12 -50t37.5 -40t66.5 -27t100 -10q91 0 144.5 38t53.5 119q0 32 -13 58.5t-42 46.5q-23 16 -49.5 22t-70.5 6h-80q-40 0 -40 24q0 13 19.5 26.5t70.5 31.5
q27 0 50.5 5t42.5 17q35 22 54.5 58.5t19.5 78.5q0 47 -30 85q13 -6 34 -6q23 0 42 6.5t42 23.5l-48 48q-18 -12 -33.5 -17t-35.5 -5zM337 344q0 -100 -90 -100q-96 0 -96 97q0 101 94 101q50 0 71 -23.5t21 -74.5z" />
    <glyph glyph-name="h" unicode="h" horiz-adv-x="539" 
d="M84 614v-614h78v354q32 40 70.5 62t74.5 22q19 0 34 -5.5t24 -14.5q11 -11 15 -28.5t4 -45.5v-344h77v357q0 27 -1.5 42t-6.5 30q-11 35 -47 57t-81 22q-48 0 -90 -23.5t-76 -55.5l1.5 22t1.5 46v116q0 57 -6.5 87.5l-6.5 30.5l-78 -15l6.5 -26.5t6.5 -75.5z" />
    <glyph glyph-name="i" unicode="i" horiz-adv-x="249" 
d="M83 0h81v509l-81 -13v-496zM64 651q0 -25 17.5 -42.5t43.5 -17.5t43.5 17.5t17.5 43.5t-17.5 43.5t-43.5 17.5t-43.5 -18t-17.5 -44z" />
    <glyph glyph-name="j" unicode="j" horiz-adv-x="250" 
d="M85 17q0 -33 -2 -58t-9.5 -44.5t-22.5 -34.5t-41 -26l39 -52q35 16 61.5 39.5t40.5 58.5q8 20 11 49t3 61v500l-80 -16v-477zM125 713q-26 0 -43.5 -17.5t-17.5 -43.5t17.5 -43.5t43.5 -17.5t43.5 17.5t17.5 43.5t-17.5 43.5t-43.5 17.5z" />
    <glyph glyph-name="k" unicode="k" horiz-adv-x="495" 
d="M83 614v-614h78v613q0 57 -6.5 87.5l-6.5 30.5l-78 -15l6.5 -26.5t6.5 -75.5zM164 282l229 -282h104l-241 282l196 216h-98z" />
    <glyph glyph-name="l" unicode="l" horiz-adv-x="249" 
d="M163 609q0 57 -6.5 87.5l-6.5 30.5l-78 -15l6 -26.5t6 -75.5v-528q0 -27 6 -43.5t18 -27.5q22 -21 59 -21q16 0 25.5 2t24.5 9l-16 51l-4 -1t-6 -1q-17 0 -22.5 10.5t-5.5 39.5v509z" />
    <glyph glyph-name="m" unicode="m" horiz-adv-x="786" 
d="M84 386v-386h75v372q39 35 68.5 50.5t58.5 15.5q34 0 51 -20q8 -11 11 -26t3 -38v-354h79v364q39 36 68.5 56.5t63.5 20.5q64 0 64 -73v-368h80v376q0 60 -34.5 97.5t-90.5 37.5q-38 0 -81 -22.5t-79 -60.5q-14 40 -46.5 61.5t-69.5 21.5q-19 0 -39.5 -6.5t-40 -17
t-36.5 -24t-29 -27.5q0 17 -4.5 35t-8.5 28t-5 11l-76 -18l9 -26t9 -80z" />
    <glyph glyph-name="n" unicode="n" horiz-adv-x="530" 
d="M84 384v-384h76v371q13 14 31 27t36.5 22.5t37 15t33.5 5.5q37 0 55 -21q5 -6 8.5 -12.5t5.5 -15.5t3 -22t1 -33v-337h79v378q0 31 -12 58q-15 33 -48 53t-74 20q-80 0 -157 -77q0 20 -4.5 38.5t-8.5 28.5t-5 11l-76 -21l9.5 -25.5t9.5 -79.5z" />
    <glyph glyph-name="o" unicode="o" horiz-adv-x="538" 
d="M50 252q0 -123 56 -194t159 -71q47 0 86 16.5t67.5 48.5t44.5 79.5t16 109.5q0 61 -11.5 106t-34.5 79q-26 37 -67 62t-104 25q-99 0 -155.5 -69.5t-56.5 -191.5zM367 385q23 -47 23 -150q0 -37 -3.5 -61t-11.5 -47q-13 -36 -41 -55.5t-67 -19.5q-32 0 -59.5 13.5
t-41.5 36.5t-22.5 66.5t-8.5 96.5q0 45 6 76t18 54q13 25 41 39.5t61 14.5q31 0 60.5 -15.5t45.5 -48.5z" />
    <glyph glyph-name="p" unicode="p" horiz-adv-x="546" 
d="M84 390v-598l78 15v238q26 -27 62.5 -42.5t74.5 -15.5q49 0 88 23.5t66 67.5q21 34 30.5 73t9.5 99q0 67 -13.5 114t-41.5 82q-24 30 -59.5 46t-73.5 16q-85 0 -147 -73q0 42 -2.5 59l-2.5 17l-80 -14l5.5 -25t5.5 -82zM162 368q58 70 133 70q30 0 55 -14.5t37 -40.5
q11 -23 17 -60.5t6 -82.5q0 -42 -5 -72t-16 -54q-13 -28 -41.5 -45t-63.5 -17q-65 0 -122 65v251z" />
    <glyph glyph-name="q" unicode="q" horiz-adv-x="544" 
d="M389 443q-32 36 -66 53t-75 17q-45 0 -83 -21t-66 -59q-25 -34 -36 -79.5t-11 -119.5q0 -76 21.5 -124t58.5 -79q25 -21 52 -30.5t62 -9.5q84 0 140 65v-259l75 16v557q0 63 7.5 95.5l7.5 32.5h-77q-2 -4 -3.5 -11.5t-3 -15.5t-2.5 -15.5t-1 -12.5zM386 135
q-20 -37 -51.5 -57t-69.5 -20q-29 0 -48 7t-35 22q-9 9 -17.5 20.5t-15 30t-10.5 46t-4 68.5q0 25 1 43.5t4 33.5t7.5 28t10.5 25q15 29 42 45t59 16q36 0 71.5 -19.5t55.5 -51.5v-237z" />
    <glyph glyph-name="r" unicode="r" horiz-adv-x="334" 
d="M84 384v-384h78v312q0 31 6 46.5t23 32.5q36 36 83 36q12 0 22 -4l32 85l-8.5 2.5t-18.5 2.5q-38 0 -75.5 -22.5t-64.5 -60.5q1 20 -3 39.5t-8 30t-5 11.5l-78 -21l8.5 -25.5t8.5 -80.5z" />
    <glyph glyph-name="s" unicode="s" horiz-adv-x="453" 
d="M233 517q-39 0 -71.5 -11.5t-56 -31.5t-36.5 -48t-13 -62q0 -52 32 -88t94 -49l62 -13q43 -9 62.5 -28.5t19.5 -53.5q0 -40 -27.5 -63t-73.5 -23q-81 0 -158 47l-30 -58q38 -23 86.5 -36.5t96.5 -13.5q42 0 76.5 12t59.5 33.5t38.5 51.5t13.5 66q0 111 -133 139l-66 14
q-40 8 -56 25.5t-16 46.5q0 37 25.5 59.5t68.5 22.5q33 0 62.5 -10t62.5 -26l29 58q-32 18 -72.5 29t-79.5 11z" />
    <glyph glyph-name="t" unicode="t" horiz-adv-x="322" 
d="M172 498q0 25 1.5 50.5t3.5 46.5t3.5 34l1.5 13l-82 -18l-1.5 -13t-3 -32t-2.5 -41t-1 -40h-65v-59h65v-342q0 -38 11 -62t37 -37q14 -7 29.5 -10.5t35.5 -3.5q50 0 88 20l-11 50q-11 -5 -21.5 -7.5t-27.5 -2.5q-37 0 -50.5 16t-13.5 58v321h104l24 59h-125z" />
    <glyph glyph-name="u" unicode="u" horiz-adv-x="547" 
d="M81 128q0 -22 3 -41t10 -33q16 -33 49.5 -52t81.5 -19q101 0 158 76q5 -25 17 -42.5t37 -37.5l50 53q-19 17 -26.5 40.5t-7.5 70.5v363l-77 -13v-353q-20 -41 -55 -65.5t-72 -24.5q-17 0 -33 4.5t-28 12.5q-17 12 -23.5 30.5t-6.5 53.5v358l-77 -15v-366z" />
    <glyph glyph-name="v" unicode="v" horiz-adv-x="467" 
d="M184 -5h77l187 503h-83l-114 -331q-12 -34 -18 -59l-6 -25h-2q0 2 -3 13t-8.5 31.5t-12.5 40.5l-116 343l-80 -17z" />
    <glyph glyph-name="w" unicode="w" horiz-adv-x="697" 
d="M160 -4h73l100 354q2 8 5 20.5t4.5 21t1.5 9.5h2l3.5 -15t10.5 -40l99 -350h77l141 502h-82l-79 -335q-2 -10 -6 -27t-6.5 -28.5t-2.5 -13.5h-2q0 2 -3.5 13t-8.5 29t-8 31l-87 331h-85l-89 -327q-8 -27 -12.5 -49.5l-4.5 -22.5h-3l-5 24t-13 59l-80 329l-78 -17z" />
    <glyph glyph-name="x" unicode="x" horiz-adv-x="447" 
d="M183 276l-186 -276h92l135 212l135 -212h95l-191 276l148 222h-91l-96 -166l-99 166h-96z" />
    <glyph glyph-name="y" unicode="y" horiz-adv-x="467" 
d="M129 175q6 -19 14 -44.5t15 -51.5t13 -48.5t8 -34.5l32 5q-10 -38 -20.5 -64t-23.5 -43t-30 -28t-41 -18l23 -53q33 8 57.5 24t43 40t33 54.5t27.5 68.5l171 516h-89l-98 -327q-6 -20 -13.5 -45.5t-12 -41.5t-5.5 -18h-2l-2.5 13t-7 31.5t-9.5 40t-11 39.5l-102 323
l-77 -26z" />
    <glyph glyph-name="z" unicode="z" horiz-adv-x="429" 
d="M52 436h250l-271 -376v-60h332l37 60h-275l259 374v64h-332v-62z" />
    <glyph glyph-name="braceleft" unicode="{" horiz-adv-x="333" 
d="M294 732h-70q-18 0 -36.5 -8t-33.5 -24t-25 -39.5t-10 -53.5v-176q0 -26 -7.5 -47t-19.5 -35.5t-27.5 -22.5t-31.5 -8v-60q16 0 31.5 -7.5t27.5 -22.5t19.5 -36t7.5 -48v-175q0 -30 9.5 -53.5t24.5 -39.5t33.5 -24t37.5 -8h70v60h-54q-16 0 -25.5 7t-15 18t-7 25t-1.5 29
v175q0 37 -10 61.5t-24 39t-28.5 21t-23.5 7.5v2q9 2 23.5 9.5t28.5 22.5t24 38.5t10 57.5v176q0 15 1.5 29t7 25.5t15 18t25.5 6.5h54v60z" />
    <glyph glyph-name="bar" unicode="|" horiz-adv-x="222" 
d="M78 -18h66v774h-66v-774z" />
    <glyph glyph-name="braceright" unicode="}" horiz-adv-x="333" 
d="M39 672h54q16 0 25.5 -6.5t14.5 -18t7 -25.5t2 -29v-176q0 -34 10 -57.5t24 -38.5t28.5 -22.5t23.5 -9.5v-2q-9 -1 -23.5 -7.5t-28.5 -21t-24 -39t-10 -61.5v-175q0 -15 -2 -29t-7 -25t-14.5 -18t-25.5 -7h-54v-60h70q19 0 37.5 8t33.5 24t24.5 39.5t9.5 53.5v175
q0 27 7.5 48t19.5 36t27.5 22.5t31.5 7.5v60q-16 0 -31.5 8t-27.5 22.5t-19.5 35.5t-7.5 47v176q0 30 -10 53.5t-25 39.5t-33.5 24t-36.5 8h-70v-60z" />
    <glyph glyph-name="asciitilde" unicode="~" horiz-adv-x="666" 
d="M530 372q-13 -26 -32.5 -48t-52.5 -22q-27 0 -53.5 10.5t-53 23.5t-54 23.5t-56.5 10.5q-23 0 -41.5 -8t-33 -20.5t-27 -28t-23.5 -31.5l33 -48q12 26 31.5 48t52.5 22q27 0 53.5 -10.5t53.5 -23.5t54 -23.5t56 -10.5q23 0 41.5 8t33.5 20.5t27 28t24 31.5z" />
    <glyph glyph-name="quotesinglbase" unicode="&#x201a;" horiz-adv-x="267" 
d="M85 -143q23 13 46 31t38 38q18 24 28 50.5t10 52.5q0 42 -22 69t-57 27q-29 0 -49.5 -21t-20.5 -51q0 -26 16 -45t39 -19q6 0 11 1q-8 -60 -67 -89z" />
    <glyph glyph-name="florin" unicode="&#x192;" horiz-adv-x="287" 
d="M-3 -142l37 -56q45 26 69 49.5t36 51.5t16 64.5t7 87.5l26 384h110l28 59h-134l5 77q3 43 21.5 65.5t50.5 22.5q19 0 37.5 -7.5t31.5 -15.5l33 55q-5 3 -16.5 8t-25.5 9.5t-30.5 8t-31.5 3.5q-26 0 -47 -6.5t-39 -19.5q-25 -18 -41.5 -44t-20.5 -78l-5 -78h-50v-59h46
l-25 -391q-2 -35 -3.5 -61.5t-9 -48t-25 -40.5t-50.5 -40z" />
    <glyph glyph-name="quotedblbase" unicode="&#x201e;" horiz-adv-x="461" 
d="M85 -143q23 13 46 31t38 38q18 24 28 50.5t10 52.5q0 42 -22 69t-57 27q-29 0 -49.5 -21t-20.5 -51q0 -26 16 -45t39 -19q6 0 11 1q-8 -60 -67 -89zM283 -143q23 13 46 31t38 38q18 24 28 50.5t10 52.5q0 42 -22 69t-57 27q-29 0 -49.5 -21t-20.5 -51q0 -26 16 -45
t39 -19q6 0 11 1q-8 -60 -67 -89z" />
    <glyph glyph-name="ellipsis" unicode="&#x2026;" horiz-adv-x="688" 
d="M46 56q0 -29 19.5 -49t48.5 -20q27 0 46.5 20t19.5 49q0 28 -19.5 47t-48.5 19q-28 0 -47 -19t-19 -47zM276 56q0 -29 19.5 -49t48.5 -20q27 0 46.5 20t19.5 49q0 28 -19.5 47t-48.5 19q-28 0 -47 -19t-19 -47zM506 56q0 -29 19.5 -49t48.5 -20q27 0 46.5 20t19.5 49
q0 28 -19.5 47t-48.5 19q-28 0 -47 -19t-19 -47z" />
    <glyph glyph-name="dagger" unicode="&#x2020;" horiz-adv-x="447" 
d="M26 524v-69h157v-455h79v455h150l10 69h-160v162h-79v-162h-157z" />
    <glyph glyph-name="daggerdbl" unicode="&#x2021;" horiz-adv-x="434" 
d="M33 231l-10 -69h160v-162h79v162h157v69h-157v224h150l10 69h-160v162h-79v-162h-157v-69h157v-224h-150z" />
    <glyph glyph-name="circumflex" unicode="&#x2c6;" horiz-adv-x="402" 
d="M60 561l135 85l139 -85l36 44l-171 135l-170 -135z" />
    <glyph glyph-name="perthousand" unicode="&#x2030;" horiz-adv-x="1201" 
d="M221 0h66l335 686h-66zM34 521q0 -80 43 -126t118 -46t118 44.5t43 121.5q0 78 -39.5 127t-122.5 49q-75 0 -117.5 -45t-42.5 -125zM193 636q32 0 51 -11t29 -29t13 -40.5t3 -44.5q0 -53 -24 -80t-67 -27q-54 0 -75 31.5t-21 93.5q0 51 21.5 79t69.5 28zM480 162
q0 -80 43 -126t118 -46t118 44.5t43 121.5q0 78 -39.5 127t-122.5 49q-75 0 -117.5 -45t-42.5 -125zM639 277q32 0 51 -11t29 -29t13 -40.5t3 -44.5q0 -53 -24 -80t-67 -27q-54 0 -75 31.5t-21 93.5q0 51 21.5 79t69.5 28zM850 162q0 -80 43 -126t118 -46t118 44.5t43 121.5
q0 78 -39.5 127t-122.5 49q-75 0 -117.5 -45t-42.5 -125zM1009 277q32 0 51 -11t29 -29t13 -40.5t3 -44.5q0 -53 -24 -80t-67 -27q-54 0 -75 31.5t-21 93.5q0 51 21.5 79t69.5 28z" />
    <glyph glyph-name="guilsinglleft" unicode="&#x2039;" horiz-adv-x="314" 
d="M256 418l-55 36l-143 -214l143 -214l55 36l-117 178z" />
    <glyph glyph-name="OE" unicode="&#x152;" horiz-adv-x="853" 
d="M318 66q-76 0 -129 62q-35 41 -47 93.5t-12 130.5q0 54 11 103.5t35 88.5q26 42 67 56.5t101 14.5q20 0 42.5 -2t45.5 -5v-536q-12 -2 -28 -3t-31.5 -2t-30.5 -1h-24zM817 0v71h-302v251h235v71h-235v224h281l11 69h-472q-40 0 -71 -5.5t-56.5 -16t-47 -27.5t-41.5 -39
q-35 -38 -56.5 -101.5t-21.5 -154.5q0 -101 28.5 -174.5t87.5 -115.5q25 -18 48 -28.5t48 -15.5t55 -6.5t69 -1.5h440z" />
    <glyph glyph-name="quoteleft" unicode="&#x2018;" horiz-adv-x="260" 
d="M174 711q-23 -13 -46 -31t-38 -38q-18 -24 -28 -50.5t-10 -52.5q0 -42 22 -69t57 -27q29 0 49.5 21t20.5 51q0 26 -16 45t-39 19q-6 0 -11 -1q8 60 67 89z" />
    <glyph glyph-name="quoteright" unicode="&#x2019;" horiz-adv-x="260" 
d="M199 602q0 42 -22 69t-57 27q-29 0 -49.5 -21t-20.5 -51q0 -26 16 -45t39 -19q6 0 11 1q-8 -60 -67 -89l28 -44q23 13 46 31t38 38q18 24 28 50.5t10 52.5z" />
    <glyph glyph-name="quotedblleft" unicode="&#x201c;" horiz-adv-x="456" 
d="M174 711q-23 -13 -46 -31t-38 -38q-18 -24 -28 -50.5t-10 -52.5q0 -42 22 -69t57 -27q29 0 49.5 21t20.5 51q0 26 -16 45t-39 19q-6 0 -11 -1q8 60 67 89zM371 711q-23 -13 -46 -31t-38 -38q-18 -24 -28 -50.5t-10 -52.5q0 -42 22 -69t57 -27q29 0 49.5 21t20.5 51
q0 26 -16 45t-39 19q-6 0 -11 -1q8 60 67 89z" />
    <glyph glyph-name="quotedblright" unicode="&#x201d;" horiz-adv-x="456" 
d="M396 602q0 42 -22 69t-57 27q-29 0 -49.5 -21t-20.5 -51q0 -26 16 -45t39 -19q6 0 11 1q-8 -60 -67 -89l28 -44q23 13 46 31t38 38q18 24 28 50.5t10 52.5zM199 602q0 42 -22 69t-57 27q-29 0 -49.5 -21t-20.5 -51q0 -26 16 -45t39 -19q6 0 11 1q-8 -60 -67 -89l28 -44
q23 13 46 31t38 38q18 24 28 50.5t10 52.5z" />
    <glyph glyph-name="bullet" unicode="&#x2022;" horiz-adv-x="500" 
d="M73 354q0 -37 14 -69t38 -56t56 -38t69 -14t69 14t56 38t38 56t14 69t-14 69t-38 56t-56 38t-69 14t-69 -14t-56 -38t-38 -56t-14 -69z" />
    <glyph glyph-name="endash" unicode="&#x2013;" horiz-adv-x="481" 
d="M-3 250h485v59h-485v-59z" />
    <glyph glyph-name="emdash" unicode="&#x2014;" horiz-adv-x="959" 
d="M124 250h712v59h-712v-59z" />
    <glyph glyph-name="tilde" unicode="&#x2dc;" horiz-adv-x="380" 
d="M331 701q-16 -17 -31 -28t-39 -11q-22 0 -36 6t-26.5 12.5t-27 12.5t-37.5 6q-44 0 -69.5 -16t-50.5 -47l28 -45q16 17 30.5 28t38.5 11q22 0 36 -6t26.5 -12.5t27 -12.5t37.5 -6q44 0 70 16t51 47z" />
    <glyph glyph-name="trademark" unicode="&#x2122;" horiz-adv-x="990" 
d="M194 274h66v346h130v66h-326v-66h130v-346zM473 274h66v346h2l136 -346h45l136 346h2v-346h66v412h-102l-123 -313l-123 313h-105v-412z" />
    <glyph glyph-name="guilsinglright" unicode="&#x203a;" horiz-adv-x="314" 
d="M58 62l55 -36l143 214l-143 214l-55 -36l117 -178z" />
    <glyph glyph-name="oe" unicode="&#x153;" horiz-adv-x="844" 
d="M377 381q23 -47 23 -150q0 -37 -3.5 -61t-11.5 -47q-13 -36 -41 -55.5t-67 -19.5q-32 0 -59.5 13.5t-41.5 36.5t-22.5 66.5t-8.5 96.5q0 45 6 76t18 54q13 25 41 39.5t61 14.5q31 0 60.5 -15.5t45.5 -48.5zM598 450q29 0 53 -12t37 -32q11 -18 16.5 -44t6.5 -67h-228
q6 155 115 155zM447 70q20 -36 65.5 -58.5t101.5 -22.5q48 0 91.5 16t76.5 46l-30 50q-51 -47 -122 -47q-38 0 -70.5 14.5t-53.5 46.5q-13 20 -18 47t-5 62v12h311v11q0 45 -3 77t-9.5 56t-17.5 42t-27 35q-26 26 -60 40.5t-75 14.5q-102 0 -162 -88q-25 37 -66 61t-102 24
q-99 0 -155.5 -69.5t-56.5 -191.5q0 -62 15 -111t42.5 -83t67.5 -52.5t90 -18.5q57 0 97 21t75 66z" />
    <glyph glyph-name="Ydieresis" unicode="&#x178;" horiz-adv-x="523" 
d="M227 272v-272h85v267l223 419h-94l-132 -262q-15 -30 -26 -53.5l-11 -23.5q-1 1 -5 11t-12.5 28.5t-17.5 37.5l-130 262h-101zM122 781q0 -22 15 -37.5t37 -15.5t36.5 15.5t14.5 37.5q0 21 -15 36t-37 15q-21 0 -36 -15t-15 -36zM328 781q0 -22 15.5 -37.5t37.5 -15.5
q21 0 36 15.5t15 37.5q0 21 -15.5 36t-36.5 15q-22 0 -37 -15t-15 -36z" />
    <glyph glyph-name="exclamdown" unicode="&#xa1;" horiz-adv-x="266" 
d="M89 -9l98 13l-19 488h-60zM76 634q0 -25 17.5 -42.5t43.5 -17.5t43.5 17.5t17.5 43.5t-17.5 44t-43.5 18t-43.5 -18.5t-17.5 -44.5z" />
    <glyph glyph-name="cent" unicode="&#xa2;" horiz-adv-x="444" 
d="M293 586h-55v-78q-59 -7 -107 -55q-32 -32 -53.5 -81t-21.5 -131q0 -56 11.5 -98.5t36.5 -78.5q45 -66 134 -74v-75h55v76q35 4 64 19.5t58 44.5l-43 50q-33 -41 -79 -51v386q16 -3 31 -11.5t35 -25.5l43 54q-23 19 -48.5 32.5t-60.5 18.5v78zM238 53q-96 20 -96 171
q0 111 28 163q11 20 29 33.5t39 19.5v-387z" />
    <glyph glyph-name="sterling" unicode="&#xa3;" horiz-adv-x="556" 
d="M57 0h438v78h-246v252h162v66h-162v78q0 39 6 71t21 55t39.5 35.5t61.5 12.5q33 0 59 -13t49 -36l55 59q-32 32 -74 47t-87 15t-84.5 -13.5t-68 -43t-45 -76t-16.5 -111.5v-80h-96v-66h96v-252h-108v-78z" />
    <glyph glyph-name="currency" unicode="&#xa4;" horiz-adv-x="447" 
d="M218 386q56 0 76 -33.5t20 -91.5q0 -52 -22 -79.5t-69 -27.5q-51 0 -73.5 29.5t-22.5 95.5q0 51 20.5 79t70.5 28zM59 271q0 -74 37 -119l-43 -65l62 -41l41 64q30 -11 64 -11q39 0 66 10l41 -63l64 41l-45 65q19 21 27 48t8 65q0 51 -13.5 84t-29.5 44l42 63l-64 40
l-37 -65q-28 10 -60 10q-31 0 -58 -8l-38 63l-68 -40l44 -63q-40 -45 -40 -122z" />
    <glyph glyph-name="yen" unicode="&#xa5;" horiz-adv-x="549" 
d="M33 374v-59h171l23 -43v-53h-194v-59h194v-160h85v160h206v59h-206v48l26 48h180v59h-149l166 312h-94l-132 -262q-8 -16 -17 -34.5t-14 -29.5t-6 -13q-1 2 -6 13t-13.5 30t-15.5 34l-130 262h-101l166 -312h-139z" />
    <glyph glyph-name="section" unicode="&#xa7;" horiz-adv-x="556" 
d="M463 632q-12 25 -31 43t-42.5 29t-49.5 16.5t-52 5.5q-36 0 -70.5 -10.5t-61.5 -30.5t-43.5 -50.5t-16.5 -70.5q0 -41 21 -69.5t56 -48.5q-44 -21 -72.5 -54t-28.5 -86q0 -40 19 -72t54 -50l122 -64q25 -14 43.5 -24.5t31 -21t19 -23.5t6.5 -31q0 -24 -9 -41.5t-24 -29
t-34.5 -16.5t-40.5 -5q-45 0 -78.5 20.5t-47.5 66.5l-77 -36q25 -64 78.5 -93.5t118.5 -29.5q38 0 75 10.5t65.5 31.5t46 53t17.5 75q0 42 -18.5 72t-50.5 51q38 21 62 54t24 79q0 34 -14 59t-36.5 44.5t-49.5 34t-52 27.5l-98 49q-44 23 -44 72q0 22 9 38.5t24 27t34 15.5
t38 5q32 0 61.5 -15t41.5 -48zM236 226q-15 7 -30.5 15t-27.5 19t-20 25t-8 34q0 19 8 32.5t20 23.5t27 17t30 13l58 -29q16 -8 33 -17.5t31 -22.5t23.5 -29t9.5 -37q0 -29 -20 -52.5t-45 -34.5z" />
    <glyph glyph-name="dieresis" unicode="&#xa8;" horiz-adv-x="500" 
d="M91 621q0 -22 15 -37.5t37 -15.5t36.5 15.5t14.5 37.5q0 21 -15 36t-37 15q-21 0 -36 -15t-15 -36zM297 621q0 -22 15.5 -37.5t37.5 -15.5q21 0 36 15.5t15 37.5q0 21 -15.5 36t-36.5 15q-22 0 -37 -15t-15 -36z" />
    <glyph glyph-name="copyright" unicode="&#xa9;" horiz-adv-x="800" 
d="M28 354q0 -80 29.5 -148t80.5 -117.5t118.5 -78t143.5 -28.5t143.5 28.5t118.5 78t80.5 117.5t29.5 148q0 79 -29.5 147.5t-80.5 118t-118.5 78t-143.5 28.5t-143.5 -28.5t-118.5 -78t-80.5 -118t-29.5 -147.5zM94 354q0 67 24 125.5t65 101t97 67t120 24.5t119.5 -24.5
t97 -67t65.5 -101t24 -125.5q0 -68 -24 -126t-65.5 -100.5t-97 -67t-119.5 -24.5t-120 24.5t-97 67t-65 100.5t-24 126zM516 173l-28 37q-17 -13 -34.5 -19t-41.5 -6q-33 0 -60 16t-42 51q-8 18 -11.5 40t-3.5 57q0 38 5 64.5t15 46.5q29 59 92 59q21 0 38.5 -5.5
t34.5 -18.5l28 38q-19 16 -45.5 24.5t-55.5 8.5q-48 0 -87 -25t-62 -70q-13 -26 -20 -56.5t-7 -66.5q0 -89 45 -148q23 -29 55.5 -45.5t73.5 -16.5q62 0 111 35z" />
    <glyph glyph-name="ordfeminine" unicode="&#xaa;" horiz-adv-x="392" 
d="M38 240h313v54h-313v-54zM44 478q0 -19 5.5 -38.5t19.5 -35t37.5 -25t58.5 -9.5q29 0 55 10t53 39q11 -41 52 -54l32 44q-20 11 -26 29.5t-5 50.5l4 134q1 28 -1.5 54.5t-16.5 47.5q-12 18 -36.5 29.5t-59.5 11.5q-41 0 -80 -12.5t-79 -38.5l30 -46q26 20 58 32.5
t62 12.5q60 0 60 -66v-36q-9 1 -14 1h-12q-94 0 -145.5 -35t-51.5 -100zM265 474q-14 -26 -38 -42.5t-53 -16.5q-65 0 -65 69q0 45 30 67t99 22h13q6 0 16 -2z" />
    <glyph glyph-name="guillemotleft" unicode="&#xab;" horiz-adv-x="500" 
d="M256 418l-55 36l-143 -214l143 -214l55 36l-117 178zM442 418l-55 36l-143 -214l143 -214l55 36l-117 178z" />
    <glyph glyph-name="logicalnot" unicode="&#xac;" horiz-adv-x="584" 
d="M471 288h-389v-71h318v-140h71v211z" />
    <glyph glyph-name="registered" unicode="&#xae;" horiz-adv-x="800" 
d="M28 354q0 -80 29.5 -148t80.5 -117.5t118.5 -78t143.5 -28.5t143.5 28.5t118.5 78t80.5 117.5t29.5 148q0 79 -29.5 147.5t-80.5 118t-118.5 78t-143.5 28.5t-143.5 -28.5t-118.5 -78t-80.5 -118t-29.5 -147.5zM94 354q0 67 24 125.5t65 101t97 67t120 24.5t119.5 -24.5
t97 -67t65.5 -101t24 -125.5q0 -68 -24 -126t-65.5 -100.5t-97 -67t-119.5 -24.5t-120 24.5t-97 67t-65 100.5t-24 126zM556 150q-3 5 -10 16.5t-16 25.5l-18 28t-16 25q-11 17 -19.5 30t-15.5 21q-5 8 -13.5 17.5t-22.5 20.5q26 -1 46.5 8t35 24.5t22 36.5t7.5 45
q0 30 -11.5 51t-25.5 34q-15 14 -38 22t-60 8h-116v-413h58v183q13 -1 21 -5.5t16 -13.5q11 -12 19.5 -22.5t16 -21.5t16 -25t20.5 -34q12 -21 18.5 -32.5t15.5 -28.5h70zM475 447q0 -36 -20 -56q-11 -10 -27.5 -14.5t-44.5 -4.5h-40v144h43q32 0 51 -8q17 -7 27.5 -23
t10.5 -38z" />
    <glyph glyph-name="macron" unicode="&#xaf;" horiz-adv-x="402" 
d="M60 683h274v54h-274v-54z" />
    <glyph glyph-name="degree" unicode="&#xb0;" horiz-adv-x="390" 
d="M34 521q0 -80 43 -126t118 -46q42 0 72.5 13t50 35.5t29 52.5t9.5 65q0 85 -43 130.5t-119 45.5q-75 0 -117.5 -45t-42.5 -125zM193 636q55 0 75.5 -33.5t20.5 -91.5q0 -57 -24.5 -82t-66.5 -25q-49 0 -72.5 29t-23.5 96q0 54 21.5 80.5t69.5 26.5z" />
    <glyph glyph-name="plusminus" unicode="&#xb1;" horiz-adv-x="455" 
d="M42 107v-71h367v71h-367zM40 294h150v-140h71v140h150v71h-150v133h-71v-133h-150v-71z" />
    <glyph glyph-name="acute" unicode="&#xb4;" horiz-adv-x="338" 
d="M49 612l26 -47l224 100l-43 77z" />
    <glyph glyph-name="mu" unicode="&#xb5;" horiz-adv-x="536" 
d="M82 -208l78 15v195q11 -10 29.5 -14.5t37.5 -4.5q101 0 158 76q5 -25 17 -42.5t37 -37.5l50 53q-12 10 -18.5 21t-10 25t-4.5 32t-1 43v353l-77 -13v-353q-20 -41 -55 -65.5t-72 -24.5q-17 0 -33.5 5.5t-28.5 13.5q-17 12 -23 28.5t-6 53.5v359l-78 -16v-702z" />
    <glyph glyph-name="paragraph" unicode="&#xb6;" horiz-adv-x="600" 
d="M292 -126h72v768h118v-768h72v834h-243q-106 0 -167 -54t-61 -152q0 -39 15.5 -73t43 -59t66 -39.5t84.5 -14.5v-442z" />
    <glyph glyph-name="periodcentered" unicode="&#xb7;" horiz-adv-x="267" 
d="M68 279q0 -27 19.5 -46.5t46.5 -19.5t46 19.5t19 46.5q0 28 -19.5 47t-46.5 19t-46 -19t-19 -47z" />
    <glyph glyph-name="periodcentered" unicode="&#x2219;" horiz-adv-x="267" 
d="M68 279q0 -27 19.5 -46.5t46.5 -19.5t46 19.5t19 46.5q0 28 -19.5 47t-46.5 19t-46 -19t-19 -47z" />
    <glyph glyph-name="cedilla" unicode="&#xb8;" horiz-adv-x="429" 
d="M205 0l-20 -75l9 -10q10 2 26 2q13 0 25.5 -7t12.5 -22q0 -14 -11 -22t-25 -8q-17 0 -29 3.5t-32 12.5l-21 -47q15 -8 37 -16t45 -8q24 0 42.5 7.5t30.5 19.5t18.5 27t6.5 29q0 27 -13.5 47t-51.5 25l11 42h-61z" />
    <glyph glyph-name="ordmasculine" unicode="&#xba;" horiz-adv-x="434" 
d="M54 566q0 -93 43 -146t118 -53t118 49t43 141q0 95 -40.5 149.5t-122.5 54.5q-74 0 -116.5 -51.5t-42.5 -143.5zM212 706q20 0 37 -6.5t29 -24t19 -47t7 -74.5q0 -69 -22 -100t-65 -31q-48 0 -71 35.5t-23 115.5q0 66 21 99t68 33zM59 240h313v54h-313v-54z" />
    <glyph glyph-name="guillemotright" unicode="&#xbb;" horiz-adv-x="500" 
d="M58 62l55 -36l143 214l-143 214l-55 -36l117 -178zM244 62l55 -36l143 214l-143 214l-55 -36l117 -178z" />
    <glyph glyph-name="questiondown" unicode="&#xbf;" horiz-adv-x="430" 
d="M146 297q-6 -5 -23 -17t-35.5 -32t-32.5 -48t-14 -65q0 -67 42.5 -107t111.5 -40q49 0 99 16t85 43l-33 55q-32 -21 -66 -33.5t-70 -12.5q-39 0 -64.5 23t-25.5 60q0 26 8.5 43t22 29.5t29 23.5t30.5 25q43 41 52 92t-5 109h-67q25 -109 -44 -164zM284 628q0 29 -20 49
t-48 20t-47.5 -20t-19.5 -49q0 -28 20 -47.5t48 -19.5t47.5 19.5t19.5 47.5z" />
    <glyph glyph-name="Agrave" unicode="&#xc0;" horiz-adv-x="571" 
d="M233 686l-229 -686h83l66 211h256l65 -211h93l-227 686h-107zM175 278l108 336l105 -336h-213zM166 902l-43 -77l224 -100l26 47z" />
    <glyph glyph-name="Aacute" unicode="&#xc1;" horiz-adv-x="571" 
d="M233 686l-229 -686h83l66 211h256l65 -211h93l-227 686h-107zM175 278l108 336l105 -336h-213zM199 772l26 -47l224 100l-43 77z" />
    <glyph glyph-name="Acircumflex" unicode="&#xc2;" horiz-adv-x="571" 
d="M233 686l-229 -686h83l66 211h256l65 -211h93l-227 686h-107zM175 278l108 336l105 -336h-213zM147 721l135 85l139 -85l36 44l-171 135l-170 -135z" />
    <glyph glyph-name="Atilde" unicode="&#xc3;" horiz-adv-x="571" 
d="M233 686l-229 -686h83l66 211h256l65 -211h93l-227 686h-107zM175 278l108 336l105 -336h-213zM421 861q-16 -17 -31 -28t-39 -11q-22 0 -36 6t-26.5 12.5t-27 12.5t-37.5 6q-44 0 -69.5 -16t-50.5 -47l28 -45q16 17 30.5 28t38.5 11q22 0 36 -6t26.5 -12.5t27 -12.5
t37.5 -6q44 0 70 16t51 47z" />
    <glyph glyph-name="Adieresis" unicode="&#xc4;" horiz-adv-x="571" 
d="M233 686l-229 -686h83l66 211h256l65 -211h93l-227 686h-107zM175 278l108 336l105 -336h-213zM131 781q0 -22 15 -37.5t37 -15.5t36.5 15.5t14.5 37.5q0 21 -15 36t-37 15q-21 0 -36 -15t-15 -36zM337 781q0 -22 15.5 -37.5t37.5 -15.5q21 0 36 15.5t15 37.5
q0 21 -15.5 36t-36.5 15q-22 0 -37 -15t-15 -36z" />
    <glyph glyph-name="Aring" unicode="&#xc5;" horiz-adv-x="571" 
d="M233 686l-229 -686h83l66 211h256l65 -211h93l-227 686h-107zM175 278l108 336l105 -336h-213zM390 819q0 22 -8.5 41t-23 33.5t-34 23t-40.5 8.5t-40 -8.5t-33.5 -23t-22.5 -33.5t-8 -41t8.5 -41t23 -33.5t33.5 -23t41 -8.5q21 0 40 8.5t33.5 23t22.5 33.5t8 41z
M283 879q26 0 44 -18t18 -42t-18 -42t-41 -18q-24 0 -42 18t-18 42t17 42t40 18z" />
    <glyph glyph-name="AE" unicode="&#xc6;" horiz-adv-x="895" 
d="M474 607v-327h-195zM474 0h385v71h-302v251h235v71h-235v224h281l11 69h-406l-424 -686h89l130 213h236v-213z" />
    <glyph glyph-name="Ccedilla" unicode="&#xc7;" horiz-adv-x="550" 
d="M338 695q-62 0 -115 -26.5t-91.5 -74t-60 -112.5t-21.5 -141q0 -77 19 -144t63 -117q40 -45 92 -68t108 -23q51 0 100 14.5t91 41.5l-44 55q-33 -23 -64.5 -33.5t-69.5 -10.5q-59 0 -108.5 31.5t-75.5 96.5q-12 30 -17 62.5t-5 82.5q0 61 7 104t22 78q25 58 67 88t102 30
q38 0 68.5 -10t61.5 -33l44 53q-35 27 -79 41.5t-94 14.5zM277 0l-20 -75l9 -10q10 2 26 2q13 0 25.5 -7t12.5 -22q0 -14 -11 -22t-25 -8q-17 0 -29 3.5t-32 12.5l-21 -47q15 -8 37 -16t45 -8q24 0 42.5 7.5t30.5 19.5t18.5 27t6.5 29q0 27 -13.5 47t-51.5 25l11 42h-61z
" />
    <glyph glyph-name="Egrave" unicode="&#xc8;" horiz-adv-x="513" 
d="M92 0h385v71h-302v251h235v71h-235v225h281l11 68h-375v-686zM187 902l-43 -77l224 -100l26 47z" />
    <glyph glyph-name="Eacute" unicode="&#xc9;" horiz-adv-x="513" 
d="M92 0h385v71h-302v251h235v71h-235v225h281l11 68h-375v-686zM174 772l26 -47l224 100l-43 77z" />
    <glyph glyph-name="Ecircumflex" unicode="&#xca;" horiz-adv-x="513" 
d="M92 0h385v71h-302v251h235v71h-235v225h281l11 68h-375v-686zM147 721l135 85l139 -85l36 44l-171 135l-170 -135z" />
    <glyph glyph-name="Edieresis" unicode="&#xcb;" horiz-adv-x="513" 
d="M92 0h385v71h-302v251h235v71h-235v225h281l11 68h-375v-686zM131 781q0 -22 15 -37.5t37 -15.5t36.5 15.5t14.5 37.5q0 21 -15 36t-37 15q-21 0 -36 -15t-15 -36zM337 781q0 -22 15.5 -37.5t37.5 -15.5q21 0 36 15.5t15 37.5q0 21 -15.5 36t-36.5 15q-22 0 -37 -15
t-15 -36z" />
    <glyph glyph-name="Igrave" unicode="&#xcc;" horiz-adv-x="264" 
d="M92 0h80v686h-80v-686zM0 902l-43 -77l224 -100l26 47z" />
    <glyph glyph-name="Iacute" unicode="&#xcd;" horiz-adv-x="264" 
d="M92 0h80v686h-80v-686zM45 772l26 -47l224 100l-43 77z" />
    <glyph glyph-name="Icircumflex" unicode="&#xce;" horiz-adv-x="264" 
d="M92 0h80v686h-80v-686zM0 721l135 85l139 -85l36 44l-171 135l-170 -135z" />
    <glyph glyph-name="Idieresis" unicode="&#xcf;" horiz-adv-x="264" 
d="M92 0h80v686h-80v-686zM-19 781q0 -22 15 -37.5t37 -15.5t36.5 15.5t14.5 37.5q0 21 -15 36t-37 15q-21 0 -36 -15t-15 -36zM187 781q0 -22 15.5 -37.5t37.5 -15.5q21 0 36 15.5t15 37.5q0 21 -15.5 36t-36.5 15q-22 0 -37 -15t-15 -36z" />
    <glyph glyph-name="Ntilde" unicode="&#xd1;" horiz-adv-x="640" 
d="M92 0h85l-4 398q0 33 -1.5 66.5t-3 60.5t-3 43.5l-1.5 16.5l6 -14t16.5 -37.5t24.5 -53t31 -60.5l220 -420h86v686h-81l3 -373q0 -37 1.5 -74.5t3 -67.5t3 -48.5l1.5 -18.5l-5 13t-13.5 33.5t-20.5 46t-25 51.5l-228 438h-95v-686zM460 861q-16 -17 -31 -28t-39 -11
q-22 0 -36 6t-26.5 12.5t-27 12.5t-37.5 6q-44 0 -69.5 -16t-50.5 -47l28 -45q16 17 30.5 28t38.5 11q22 0 36 -6t26.5 -12.5t27 -12.5t37.5 -6q44 0 70 16t51 47z" />
    <glyph glyph-name="Ograve" unicode="&#xd2;" horiz-adv-x="668" 
d="M57 346q0 -178 82 -272q35 -40 83.5 -63.5t111.5 -23.5q54 0 95 15.5t79 50.5q52 48 76 114t24 165q0 83 -15 144.5t-47 109.5q-12 18 -31 38t-45 36.5t-60.5 27t-79.5 10.5q-63 0 -114 -24.5t-86 -70t-54 -110.5t-19 -147zM483 538q17 -36 25 -89t8 -129q0 -42 -3 -74.5
t-9 -57.5t-15.5 -44t-22.5 -35q-23 -29 -54.5 -44t-73.5 -15q-21 0 -43 5.5t-41.5 15t-35.5 23t-26 30.5q-20 35 -32 98t-12 141q0 64 8.5 109.5t26.5 79.5q20 37 59.5 58.5t87.5 21.5q60 0 97.5 -28t55.5 -66zM229 902l-43 -77l224 -100l26 47z" />
    <glyph glyph-name="Oacute" unicode="&#xd3;" horiz-adv-x="668" 
d="M57 346q0 -178 82 -272q35 -40 83.5 -63.5t111.5 -23.5q54 0 95 15.5t79 50.5q52 48 76 114t24 165q0 83 -15 144.5t-47 109.5q-12 18 -31 38t-45 36.5t-60.5 27t-79.5 10.5q-63 0 -114 -24.5t-86 -70t-54 -110.5t-19 -147zM483 538q17 -36 25 -89t8 -129q0 -42 -3 -74.5
t-9 -57.5t-15.5 -44t-22.5 -35q-23 -29 -54.5 -44t-73.5 -15q-21 0 -43 5.5t-41.5 15t-35.5 23t-26 30.5q-20 35 -32 98t-12 141q0 64 8.5 109.5t26.5 79.5q20 37 59.5 58.5t87.5 21.5q60 0 97.5 -28t55.5 -66zM249 772l26 -47l224 100l-43 77z" />
    <glyph glyph-name="Ocircumflex" unicode="&#xd4;" horiz-adv-x="668" 
d="M57 346q0 -178 82 -272q35 -40 83.5 -63.5t111.5 -23.5q54 0 95 15.5t79 50.5q52 48 76 114t24 165q0 83 -15 144.5t-47 109.5q-12 18 -31 38t-45 36.5t-60.5 27t-79.5 10.5q-63 0 -114 -24.5t-86 -70t-54 -110.5t-19 -147zM483 538q17 -36 25 -89t8 -129q0 -42 -3 -74.5
t-9 -57.5t-15.5 -44t-22.5 -35q-23 -29 -54.5 -44t-73.5 -15q-21 0 -43 5.5t-41.5 15t-35.5 23t-26 30.5q-20 35 -32 98t-12 141q0 64 8.5 109.5t26.5 79.5q20 37 59.5 58.5t87.5 21.5q60 0 97.5 -28t55.5 -66zM208 721l135 85l139 -85l36 44l-171 135l-170 -135z" />
    <glyph glyph-name="Otilde" unicode="&#xd5;" horiz-adv-x="668" 
d="M57 346q0 -178 82 -272q35 -40 83.5 -63.5t111.5 -23.5q54 0 95 15.5t79 50.5q52 48 76 114t24 165q0 83 -15 144.5t-47 109.5q-12 18 -31 38t-45 36.5t-60.5 27t-79.5 10.5q-63 0 -114 -24.5t-86 -70t-54 -110.5t-19 -147zM483 538q17 -36 25 -89t8 -129q0 -42 -3 -74.5
t-9 -57.5t-15.5 -44t-22.5 -35q-23 -29 -54.5 -44t-73.5 -15q-21 0 -43 5.5t-41.5 15t-35.5 23t-26 30.5q-20 35 -32 98t-12 141q0 64 8.5 109.5t26.5 79.5q20 37 59.5 58.5t87.5 21.5q60 0 97.5 -28t55.5 -66zM487 861q-16 -17 -31 -28t-39 -11q-22 0 -36 6t-26.5 12.5
t-27 12.5t-37.5 6q-44 0 -69.5 -16t-50.5 -47l28 -45q16 17 30.5 28t38.5 11q22 0 36 -6t26.5 -12.5t27 -12.5t37.5 -6q44 0 70 16t51 47z" />
    <glyph glyph-name="Odieresis" unicode="&#xd6;" horiz-adv-x="668" 
d="M57 346q0 -178 82 -272q35 -40 83.5 -63.5t111.5 -23.5q54 0 95 15.5t79 50.5q52 48 76 114t24 165q0 83 -15 144.5t-47 109.5q-12 18 -31 38t-45 36.5t-60.5 27t-79.5 10.5q-63 0 -114 -24.5t-86 -70t-54 -110.5t-19 -147zM483 538q17 -36 25 -89t8 -129q0 -42 -3 -74.5
t-9 -57.5t-15.5 -44t-22.5 -35q-23 -29 -54.5 -44t-73.5 -15q-21 0 -43 5.5t-41.5 15t-35.5 23t-26 30.5q-20 35 -32 98t-12 141q0 64 8.5 109.5t26.5 79.5q20 37 59.5 58.5t87.5 21.5q60 0 97.5 -28t55.5 -66zM191 781q0 -22 15 -37.5t37 -15.5t36.5 15.5t14.5 37.5
q0 21 -15 36t-37 15q-21 0 -36 -15t-15 -36zM397 781q0 -22 15.5 -37.5t37.5 -15.5q21 0 36 15.5t15 37.5q0 21 -15.5 36t-36.5 15q-22 0 -37 -15t-15 -36z" />
    <glyph glyph-name="Oslash" unicode="&#xd8;" horiz-adv-x="661" 
d="M330 698q-63 0 -114 -24.5t-86 -70t-54 -110.5t-19 -147q0 -178 82 -272l-74 -123l52 -32l68 113q30 -21 67 -33t82 -12q54 0 95 15.5t79 50.5q52 48 76 114t24 165q0 92 -18.5 159t-58.5 116l71 119l-53 32l-64 -107q-28 20 -66 33.5t-89 13.5zM486 532
q15 -36 22.5 -87.5t7.5 -124.5q0 -42 -3 -74.5t-9 -57.5t-15.5 -44t-22.5 -35q-23 -29 -54.5 -44t-73.5 -15q-31 0 -62.5 11t-54.5 30zM181 145q-15 38 -24 94.5t-9 123.5q0 64 8.5 109.5t26.5 79.5q20 37 59.5 58.5t87.5 21.5q38 0 67 -12t50 -32z" />
    <glyph glyph-name="Ugrave" unicode="&#xd9;" horiz-adv-x="631" 
d="M88 194q0 -23 3 -52.5t17 -54.5q28 -51 75.5 -75t127.5 -24q63 0 105.5 13t74.5 40q31 26 41.5 60.5t10.5 96.5v488h-81v-478q0 -35 -4.5 -59.5t-21.5 -47.5q-16 -21 -47 -32t-74 -11q-32 0 -55 6t-39 16t-25.5 22t-14.5 23q-7 16 -9.5 44.5t-2.5 54.5v462h-81v-492z
M196 902l-43 -77l224 -100l26 47z" />
    <glyph glyph-name="Uacute" unicode="&#xda;" horiz-adv-x="631" 
d="M88 194q0 -23 3 -52.5t17 -54.5q28 -51 75.5 -75t127.5 -24q63 0 105.5 13t74.5 40q31 26 41.5 60.5t10.5 96.5v488h-81v-478q0 -35 -4.5 -59.5t-21.5 -47.5q-16 -21 -47 -32t-74 -11q-32 0 -55 6t-39 16t-25.5 22t-14.5 23q-7 16 -9.5 44.5t-2.5 54.5v462h-81v-492z
M190 772l26 -47l224 100l-43 77z" />
    <glyph glyph-name="Ucircumflex" unicode="&#xdb;" horiz-adv-x="631" 
d="M88 194q0 -23 3 -52.5t17 -54.5q28 -51 75.5 -75t127.5 -24q63 0 105.5 13t74.5 40q31 26 41.5 60.5t10.5 96.5v488h-81v-478q0 -35 -4.5 -59.5t-21.5 -47.5q-16 -21 -47 -32t-74 -11q-32 0 -55 6t-39 16t-25.5 22t-14.5 23q-7 16 -9.5 44.5t-2.5 54.5v462h-81v-492z
M156 721l135 85l139 -85l36 44l-171 135l-170 -135z" />
    <glyph glyph-name="Udieresis" unicode="&#xdc;" horiz-adv-x="631" 
d="M88 194q0 -23 3 -52.5t17 -54.5q28 -51 75.5 -75t127.5 -24q63 0 105.5 13t74.5 40q31 26 41.5 60.5t10.5 96.5v488h-81v-478q0 -35 -4.5 -59.5t-21.5 -47.5q-16 -21 -47 -32t-74 -11q-32 0 -55 6t-39 16t-25.5 22t-14.5 23q-7 16 -9.5 44.5t-2.5 54.5v462h-81v-492z
M155 781q0 -22 15 -37.5t37 -15.5t36.5 15.5t14.5 37.5q0 21 -15 36t-37 15q-21 0 -36 -15t-15 -36zM361 781q0 -22 15.5 -37.5t37.5 -15.5q21 0 36 15.5t15 37.5q0 21 -15.5 36t-36.5 15q-22 0 -37 -15t-15 -36z" />
    <glyph glyph-name="germandbls" unicode="&#xdf;" horiz-adv-x="572" 
d="M88 439l2 -322q0 -35 -2 -65.5t-7 -51.5h75q12 37 12 101l-3 408q-1 75 27.5 108.5t76.5 33.5q46 0 74 -25t28 -65q0 -37 -17 -54t-39 -28q-15 -7 -30 -14.5t-27.5 -17.5t-20.5 -23.5t-8 -32.5q0 -17 6.5 -29t19.5 -22.5t32.5 -20.5t46.5 -22q23 -11 41.5 -21.5t31 -24
t19 -33t6.5 -47.5q0 -26 -9 -49t-24.5 -40t-36.5 -27t-46 -10q-20 0 -35.5 3.5t-29.5 9.5l-23 -52q17 -8 43.5 -13t55.5 -5q42 0 76.5 14.5t59 40t38.5 59.5t14 72q0 48 -19 86t-52 58q-29 17 -54.5 28.5t-45.5 20t-31.5 15.5t-11.5 14q0 8 5.5 13t15 9t22 8t26.5 11
q15 7 30 17t27 24.5t19.5 33.5t7.5 43q0 33 -13.5 61t-37.5 49t-56.5 32.5t-71.5 11.5q-48 0 -84.5 -16t-62.5 -46t-33 -63.5t-7 -85.5h-74v-59h74z" />
    <glyph glyph-name="agrave" unicode="&#xe0;" 
d="M105 388q12 11 30.5 21.5t40 19t44.5 13.5t44 5q23 0 39 -6.5t28 -20.5q11 -12 13.5 -28.5t2.5 -49.5v-35l-9.5 0.5t-25.5 0.5q-126 0 -195 -47t-69 -132q0 -25 7.5 -50.5t26 -45.5t49.5 -33t77 -13q43 0 75.5 15.5t68.5 51.5q7 -26 24.5 -45.5t43.5 -27.5l40 56
q-14 7 -22 16t-12.5 22.5t-5.5 33.5t0 50l4 164q1 34 -1 62t-10 48q-32 78 -138 78q-109 0 -209 -67zM342 123q-17 -35 -50 -56.5t-71 -21.5q-86 0 -86 91q0 28 9 50.5t29 37.5t53 23t80 8q11 0 20 -0.5t19 -1.5zM148 742l-43 -77l224 -100l26 47z" />
    <glyph glyph-name="aacute" unicode="&#xe1;" 
d="M105 388q12 11 30.5 21.5t40 19t44.5 13.5t44 5q23 0 39 -6.5t28 -20.5q11 -12 13.5 -28.5t2.5 -49.5v-35l-9.5 0.5t-25.5 0.5q-126 0 -195 -47t-69 -132q0 -25 7.5 -50.5t26 -45.5t49.5 -33t77 -13q43 0 75.5 15.5t68.5 51.5q7 -26 24.5 -45.5t43.5 -27.5l40 56
q-14 7 -22 16t-12.5 22.5t-5.5 33.5t0 50l4 164q1 34 -1 62t-10 48q-32 78 -138 78q-109 0 -209 -67zM342 123q-17 -35 -50 -56.5t-71 -21.5q-86 0 -86 91q0 28 9 50.5t29 37.5t53 23t80 8q11 0 20 -0.5t19 -1.5zM139 612l26 -47l224 100l-43 77z" />
    <glyph glyph-name="acircumflex" unicode="&#xe2;" 
d="M105 388q12 11 30.5 21.5t40 19t44.5 13.5t44 5q23 0 39 -6.5t28 -20.5q11 -12 13.5 -28.5t2.5 -49.5v-35l-9.5 0.5t-25.5 0.5q-126 0 -195 -47t-69 -132q0 -25 7.5 -50.5t26 -45.5t49.5 -33t77 -13q43 0 75.5 15.5t68.5 51.5q7 -26 24.5 -45.5t43.5 -27.5l40 56
q-14 7 -22 16t-12.5 22.5t-5.5 33.5t0 50l4 164q1 34 -1 62t-10 48q-32 78 -138 78q-109 0 -209 -67zM342 123q-17 -35 -50 -56.5t-71 -21.5q-86 0 -86 91q0 28 9 50.5t29 37.5t53 23t80 8q11 0 20 -0.5t19 -1.5zM115 561l135 85l139 -85l36 44l-171 135l-170 -135z" />
    <glyph glyph-name="atilde" unicode="&#xe3;" 
d="M105 388q12 11 30.5 21.5t40 19t44.5 13.5t44 5q23 0 39 -6.5t28 -20.5q11 -12 13.5 -28.5t2.5 -49.5v-35l-9.5 0.5t-25.5 0.5q-126 0 -195 -47t-69 -132q0 -25 7.5 -50.5t26 -45.5t49.5 -33t77 -13q43 0 75.5 15.5t68.5 51.5q7 -26 24.5 -45.5t43.5 -27.5l40 56
q-14 7 -22 16t-12.5 22.5t-5.5 33.5t0 50l4 164q1 34 -1 62t-10 48q-32 78 -138 78q-109 0 -209 -67zM342 123q-17 -35 -50 -56.5t-71 -21.5q-86 0 -86 91q0 28 9 50.5t29 37.5t53 23t80 8q11 0 20 -0.5t19 -1.5zM400 701q-16 -17 -31 -28t-39 -11q-22 0 -36 6t-26.5 12.5
t-27 12.5t-37.5 6q-44 0 -69.5 -16t-50.5 -47l28 -45q16 17 30.5 28t38.5 11q22 0 36 -6t26.5 -12.5t27 -12.5t37.5 -6q44 0 70 16t51 47z" />
    <glyph glyph-name="adieresis" unicode="&#xe4;" 
d="M105 388q12 11 30.5 21.5t40 19t44.5 13.5t44 5q23 0 39 -6.5t28 -20.5q11 -12 13.5 -28.5t2.5 -49.5v-35l-9.5 0.5t-25.5 0.5q-126 0 -195 -47t-69 -132q0 -25 7.5 -50.5t26 -45.5t49.5 -33t77 -13q43 0 75.5 15.5t68.5 51.5q7 -26 24.5 -45.5t43.5 -27.5l40 56
q-14 7 -22 16t-12.5 22.5t-5.5 33.5t0 50l4 164q1 34 -1 62t-10 48q-32 78 -138 78q-109 0 -209 -67zM342 123q-17 -35 -50 -56.5t-71 -21.5q-86 0 -86 91q0 28 9 50.5t29 37.5t53 23t80 8q11 0 20 -0.5t19 -1.5zM107 621q0 -22 15 -37.5t37 -15.5t36.5 15.5t14.5 37.5
q0 21 -15 36t-37 15q-21 0 -36 -15t-15 -36zM313 621q0 -22 15.5 -37.5t37.5 -15.5q21 0 36 15.5t15 37.5q0 21 -15.5 36t-36.5 15q-22 0 -37 -15t-15 -36z" />
    <glyph glyph-name="aring" unicode="&#xe5;" 
d="M105 388q12 11 30.5 21.5t40 19t44.5 13.5t44 5q23 0 39 -6.5t28 -20.5q11 -12 13.5 -28.5t2.5 -49.5v-35l-9.5 0.5t-25.5 0.5q-126 0 -195 -47t-69 -132q0 -25 7.5 -50.5t26 -45.5t49.5 -33t77 -13q43 0 75.5 15.5t68.5 51.5q7 -26 24.5 -45.5t43.5 -27.5l40 56
q-14 7 -22 16t-12.5 22.5t-5.5 33.5t0 50l4 164q1 34 -1 62t-10 48q-32 78 -138 78q-109 0 -209 -67zM342 123q-17 -35 -50 -56.5t-71 -21.5q-86 0 -86 91q0 28 9 50.5t29 37.5t53 23t80 8q11 0 20 -0.5t19 -1.5zM376 659q0 22 -8.5 41t-23 33.5t-34 23t-40.5 8.5t-40 -8.5
t-33.5 -23t-22.5 -33.5t-8 -41t8.5 -41t23 -33.5t33.5 -23t41 -8.5q21 0 40 8.5t33.5 23t22.5 33.5t8 41zM269 719q26 0 44 -18t18 -42t-18 -42t-41 -18q-24 0 -42 18t-18 42t17 42t40 18z" />
    <glyph glyph-name="ae" unicode="&#xe6;" horiz-adv-x="772" 
d="M372 74q22 -34 66.5 -59.5t104.5 -25.5q48 0 91.5 16t76.5 46l-30 50q-51 -47 -122 -47q-41 0 -69 13t-45 35.5t-25 52.5t-8 64v17h311v11q0 45 -3 77t-9.5 56.5t-17.5 42.5t-27 35q-52 54 -135 54q-42 0 -76.5 -18t-63.5 -48q-18 30 -47 47.5t-74 17.5q-109 0 -209 -67
l39 -56q35 27 77.5 43t81.5 16q23 0 39 -6.5t28 -20.5q11 -12 13.5 -28.5t2.5 -49.5v-35l-12 0.5t-23 0.5q-126 0 -195 -47t-69 -132q0 -23 7.5 -48t25.5 -46t49 -34.5t78 -13.5q21 0 44 6t45.5 17.5t43 27.5t36.5 36zM337 123q-17 -35 -50 -56.5t-71 -21.5q-86 0 -86 91
q0 58 39.5 88.5t131.5 30.5q11 0 25 -1l14 -1zM527 450q60 0 86.5 -38.5t26.5 -116.5h-228q6 155 115 155z" />
    <glyph glyph-name="ccedilla" unicode="&#xe7;" horiz-adv-x="440" 
d="M261 511q-77 0 -135 -58q-32 -32 -53.5 -81t-21.5 -131q0 -56 11.5 -98.5t36.5 -78.5q52 -75 159 -75q47 0 82 15.5t70 50.5l-43 50q-45 -54 -107 -54q-60 0 -91.5 44t-31.5 129q0 111 28 163q14 26 39.5 41t54.5 15t49 -9t46 -31l43 54q-27 22 -58 38t-78 16zM205 0
l-20 -75l9 -10q10 2 26 2q13 0 25.5 -7t12.5 -22q0 -14 -11 -22t-25 -8q-17 0 -29 3.5t-32 12.5l-21 -47q15 -8 37 -16t45 -8q24 0 42.5 7.5t30.5 19.5t18.5 27t6.5 29q0 27 -13.5 47t-51.5 25l11 42h-61z" />
    <glyph glyph-name="egrave" unicode="&#xe8;" 
d="M286 54q-38 0 -70.5 14.5t-53.5 46.5q-13 20 -18 47t-5 62v12h311v11q-1 45 -4 77t-9.5 56t-17 42t-26.5 35q-52 54 -135 54q-90 0 -149 -69q-32 -38 -46 -81.5t-14 -106.5q0 -124 58.5 -194.5t162.5 -70.5q48 0 91.5 16t76.5 46l-30 50q-51 -47 -122 -47zM254 450
q29 0 53 -12t37 -32q11 -18 16.5 -44t6.5 -67h-228q6 155 115 155zM160 742l-43 -77l224 -100l26 47z" />
    <glyph glyph-name="eacute" unicode="&#xe9;" 
d="M286 54q-38 0 -70.5 14.5t-53.5 46.5q-13 20 -18 47t-5 62v12h311v11q-1 45 -4 77t-9.5 56t-17 42t-26.5 35q-52 54 -135 54q-90 0 -149 -69q-32 -38 -46 -81.5t-14 -106.5q0 -124 58.5 -194.5t162.5 -70.5q48 0 91.5 16t76.5 46l-30 50q-51 -47 -122 -47zM254 450
q29 0 53 -12t37 -32q11 -18 16.5 -44t6.5 -67h-228q6 155 115 155zM134 612l26 -47l224 100l-43 77z" />
    <glyph glyph-name="ecircumflex" unicode="&#xea;" 
d="M286 54q-38 0 -70.5 14.5t-53.5 46.5q-13 20 -18 47t-5 62v12h311v11q-1 45 -4 77t-9.5 56t-17 42t-26.5 35q-52 54 -135 54q-90 0 -149 -69q-32 -38 -46 -81.5t-14 -106.5q0 -124 58.5 -194.5t162.5 -70.5q48 0 91.5 16t76.5 46l-30 50q-51 -47 -122 -47zM254 450
q29 0 53 -12t37 -32q11 -18 16.5 -44t6.5 -67h-228q6 155 115 155zM108 561l135 85l139 -85l36 44l-171 135l-170 -135z" />
    <glyph glyph-name="edieresis" unicode="&#xeb;" 
d="M286 54q-38 0 -70.5 14.5t-53.5 46.5q-13 20 -18 47t-5 62v12h311v11q-1 45 -4 77t-9.5 56t-17 42t-26.5 35q-52 54 -135 54q-90 0 -149 -69q-32 -38 -46 -81.5t-14 -106.5q0 -124 58.5 -194.5t162.5 -70.5q48 0 91.5 16t76.5 46l-30 50q-51 -47 -122 -47zM254 450
q29 0 53 -12t37 -32q11 -18 16.5 -44t6.5 -67h-228q6 155 115 155zM100 621q0 -22 15 -37.5t37 -15.5t36.5 15.5t14.5 37.5q0 21 -15 36t-37 15q-21 0 -36 -15t-15 -36zM306 621q0 -22 15.5 -37.5t37.5 -15.5q21 0 36 15.5t15 37.5q0 21 -15.5 36t-36.5 15q-22 0 -37 -15
t-15 -36z" />
    <glyph glyph-name="igrave" unicode="&#xec;" horiz-adv-x="249" 
d="M7 742l-43 -77l224 -100l26 47zM81 0h84v509l-84 -13v-496z" />
    <glyph glyph-name="iacute" unicode="&#xed;" horiz-adv-x="249" 
d="M81 0h84v509l-84 -13v-496zM24 612l26 -47l224 100l-43 77z" />
    <glyph glyph-name="icircumflex" unicode="&#xee;" horiz-adv-x="249" 
d="M-14 561l135 85l139 -85l36 44l-171 135l-170 -135zM81 0h84v509l-84 -13v-496z" />
    <glyph glyph-name="idieresis" unicode="&#xef;" horiz-adv-x="249" 
d="M-22 621q0 -22 15 -37.5t37 -15.5t36.5 15.5t14.5 37.5q0 21 -15 36t-37 15q-21 0 -36 -15t-15 -36zM184 621q0 -22 15.5 -37.5t37.5 -15.5q21 0 36 15.5t15 37.5q0 21 -15.5 36t-36.5 15q-22 0 -37 -15t-15 -36zM81 0h84v509l-84 -13v-496z" />
    <glyph glyph-name="ntilde" unicode="&#xf1;" horiz-adv-x="530" 
d="M84 384v-384h76v371q13 14 31 27t36.5 22.5t37 15t33.5 5.5q37 0 55 -21q5 -6 8.5 -12.5t5.5 -15.5t3 -22t1 -33v-337h79v378q0 31 -12 58q-15 33 -48 53t-74 20q-80 0 -157 -77q0 20 -4.5 38.5t-8.5 28.5t-5 11l-76 -21l9.5 -25.5t9.5 -79.5zM406 701q-16 -17 -31 -28
t-39 -11q-22 0 -36 6t-26.5 12.5t-27 12.5t-37.5 6q-44 0 -69.5 -16t-50.5 -47l28 -45q16 17 30.5 28t38.5 11q22 0 36 -6t26.5 -12.5t27 -12.5t37.5 -6q44 0 70 16t51 47z" />
    <glyph glyph-name="ograve" unicode="&#xf2;" horiz-adv-x="538" 
d="M50 252q0 -123 56 -194t159 -71q47 0 86 16.5t67.5 48.5t44.5 79.5t16 109.5q0 61 -11.5 106t-34.5 79q-26 37 -67 62t-104 25q-99 0 -155.5 -69.5t-56.5 -191.5zM367 385q23 -47 23 -150q0 -37 -3.5 -61t-11.5 -47q-13 -36 -41 -55.5t-67 -19.5q-32 0 -59.5 13.5
t-41.5 36.5t-22.5 66.5t-8.5 96.5q0 45 6 76t18 54q13 25 41 39.5t61 14.5q31 0 60.5 -15.5t45.5 -48.5zM163 742l-43 -77l224 -100l26 47z" />
    <glyph glyph-name="oacute" unicode="&#xf3;" horiz-adv-x="538" 
d="M50 252q0 -123 56 -194t159 -71q47 0 86 16.5t67.5 48.5t44.5 79.5t16 109.5q0 61 -11.5 106t-34.5 79q-26 37 -67 62t-104 25q-99 0 -155.5 -69.5t-56.5 -191.5zM367 385q23 -47 23 -150q0 -37 -3.5 -61t-11.5 -47q-13 -36 -41 -55.5t-67 -19.5q-32 0 -59.5 13.5
t-41.5 36.5t-22.5 66.5t-8.5 96.5q0 45 6 76t18 54q13 25 41 39.5t61 14.5q31 0 60.5 -15.5t45.5 -48.5zM164 612l26 -47l224 100l-43 77z" />
    <glyph glyph-name="ocircumflex" unicode="&#xf4;" horiz-adv-x="538" 
d="M50 252q0 -123 56 -194t159 -71q47 0 86 16.5t67.5 48.5t44.5 79.5t16 109.5q0 61 -11.5 106t-34.5 79q-26 37 -67 62t-104 25q-99 0 -155.5 -69.5t-56.5 -191.5zM367 385q23 -47 23 -150q0 -37 -3.5 -61t-11.5 -47q-13 -36 -41 -55.5t-67 -19.5q-32 0 -59.5 13.5
t-41.5 36.5t-22.5 66.5t-8.5 96.5q0 45 6 76t18 54q13 25 41 39.5t61 14.5q31 0 60.5 -15.5t45.5 -48.5zM123 561l135 85l139 -85l36 44l-171 135l-170 -135z" />
    <glyph glyph-name="otilde" unicode="&#xf5;" horiz-adv-x="538" 
d="M50 252q0 -123 56 -194t159 -71q47 0 86 16.5t67.5 48.5t44.5 79.5t16 109.5q0 61 -11.5 106t-34.5 79q-26 37 -67 62t-104 25q-99 0 -155.5 -69.5t-56.5 -191.5zM367 385q23 -47 23 -150q0 -37 -3.5 -61t-11.5 -47q-13 -36 -41 -55.5t-67 -19.5q-32 0 -59.5 13.5
t-41.5 36.5t-22.5 66.5t-8.5 96.5q0 45 6 76t18 54q13 25 41 39.5t61 14.5q31 0 60.5 -15.5t45.5 -48.5zM412 701q-16 -17 -31 -28t-39 -11q-22 0 -36 6t-26.5 12.5t-27 12.5t-37.5 6q-44 0 -69.5 -16t-50.5 -47l28 -45q16 17 30.5 28t38.5 11q22 0 36 -6t26.5 -12.5
t27 -12.5t37.5 -6q44 0 70 16t51 47z" />
    <glyph glyph-name="odieresis" unicode="&#xf6;" horiz-adv-x="538" 
d="M50 252q0 -123 56 -194t159 -71q47 0 86 16.5t67.5 48.5t44.5 79.5t16 109.5q0 61 -11.5 106t-34.5 79q-26 37 -67 62t-104 25q-99 0 -155.5 -69.5t-56.5 -191.5zM367 385q23 -47 23 -150q0 -37 -3.5 -61t-11.5 -47q-13 -36 -41 -55.5t-67 -19.5q-32 0 -59.5 13.5
t-41.5 36.5t-22.5 66.5t-8.5 96.5q0 45 6 76t18 54q13 25 41 39.5t61 14.5q31 0 60.5 -15.5t45.5 -48.5zM111 621q0 -22 15 -37.5t37 -15.5t36.5 15.5t14.5 37.5q0 21 -15 36t-37 15q-21 0 -36 -15t-15 -36zM317 621q0 -22 15.5 -37.5t37.5 -15.5q21 0 36 15.5t15 37.5
q0 21 -15.5 36t-36.5 15q-22 0 -37 -15t-15 -36z" />
    <glyph glyph-name="divide" unicode="&#xf7;" horiz-adv-x="828" 
d="M643 651q0 -25 17.5 -42.5t43.5 -17.5t43.5 17.5t17.5 43.5t-17.5 43.5t-43.5 17.5t-43.5 -18t-17.5 -44zM172 498v77q0 88 68 88q20 0 40 -7.5t34 -15.5l29 55q-44 29 -110 29q-53 0 -88 -26q-8 -6 -17.5 -15.5t-18 -24t-14 -34.5t-5.5 -48v-78h-48v-59h48v-439h82v439
h197v-439h82v439h211v-439h83v498h-294v77q0 88 68 88q20 0 40 -7.5t34 -15.5l29 55q-44 29 -110 29q-53 0 -88 -26q-8 -6 -17.5 -15.5t-18 -24t-14 -34.5t-5.5 -48v-78h-197z" />
    <glyph glyph-name="oslash" unicode="&#xf8;" horiz-adv-x="549" 
d="M272 509q-99 0 -155.5 -69.5t-56.5 -191.5q0 -63 15.5 -113t44.5 -84l-52 -87l48 -30l48 79q46 -30 111 -30q42 0 74.5 11t61.5 37q42 36 60 84.5t18 121.5q0 72 -15.5 121t-49.5 88l54 89l-49 30l-50 -83q-22 13 -48.5 20t-58.5 7zM164 124q-9 26 -14 61t-5 76
q0 45 6 76t18 54q13 25 41 39.5t61 14.5q19 0 37.5 -5.5t34.5 -17.5zM380 372q20 -46 20 -141q0 -37 -3.5 -61t-11.5 -47q-13 -36 -41 -55.5t-67 -19.5q-22 0 -42 7t-35 18z" />
    <glyph glyph-name="ugrave" unicode="&#xf9;" horiz-adv-x="547" 
d="M81 128q0 -22 3 -41t10 -33q16 -33 49.5 -52t81.5 -19q101 0 158 76q5 -25 17 -42.5t37 -37.5l50 53q-19 17 -26.5 40.5t-7.5 70.5v363l-77 -13v-353q-20 -41 -55 -65.5t-72 -24.5q-17 0 -33 4.5t-28 12.5q-17 12 -23.5 30.5t-6.5 53.5v358l-77 -15v-366zM181 742
l-43 -77l224 -100l26 47z" />
    <glyph glyph-name="uacute" unicode="&#xfa;" horiz-adv-x="547" 
d="M81 128q0 -22 3 -41t10 -33q16 -33 49.5 -52t81.5 -19q101 0 158 76q5 -25 17 -42.5t37 -37.5l50 53q-19 17 -26.5 40.5t-7.5 70.5v363l-77 -13v-353q-20 -41 -55 -65.5t-72 -24.5q-17 0 -33 4.5t-28 12.5q-17 12 -23.5 30.5t-6.5 53.5v358l-77 -15v-366zM198 612l26 -47
l224 100l-43 77z" />
    <glyph glyph-name="ucircumflex" unicode="&#xfb;" horiz-adv-x="547" 
d="M81 128q0 -22 3 -41t10 -33q16 -33 49.5 -52t81.5 -19q101 0 158 76q5 -25 17 -42.5t37 -37.5l50 53q-19 17 -26.5 40.5t-7.5 70.5v363l-77 -13v-353q-20 -41 -55 -65.5t-72 -24.5q-17 0 -33 4.5t-28 12.5q-17 12 -23.5 30.5t-6.5 53.5v358l-77 -15v-366zM139 561l135 85
l139 -85l36 44l-171 135l-170 -135z" />
    <glyph glyph-name="udieresis" unicode="&#xfc;" horiz-adv-x="547" 
d="M81 128q0 -22 3 -41t10 -33q16 -33 49.5 -52t81.5 -19q101 0 158 76q5 -25 17 -42.5t37 -37.5l50 53q-19 17 -26.5 40.5t-7.5 70.5v363l-77 -13v-353q-20 -41 -55 -65.5t-72 -24.5q-17 0 -33 4.5t-28 12.5q-17 12 -23.5 30.5t-6.5 53.5v358l-77 -15v-366zM112 621
q0 -22 15 -37.5t37 -15.5t36.5 15.5t14.5 37.5q0 21 -15 36t-37 15q-21 0 -36 -15t-15 -36zM318 621q0 -22 15.5 -37.5t37.5 -15.5q21 0 36 15.5t15 37.5q0 21 -15.5 36t-36.5 15q-22 0 -37 -15t-15 -36z" />
    <glyph glyph-name="ydieresis" unicode="&#xff;" horiz-adv-x="467" 
d="M129 175q6 -19 14 -44.5t15 -51.5t13 -48.5t8 -34.5l32 5q-10 -38 -20.5 -64t-23.5 -43t-30 -28t-41 -18l23 -53q33 8 57.5 24t43 40t33 54.5t27.5 68.5l171 516h-89l-98 -327q-6 -20 -13.5 -45.5t-12 -41.5t-5.5 -18h-2l-2.5 13t-7 31.5t-9.5 40t-11 39.5l-102 323
l-77 -26zM84 621q0 -22 15 -37.5t37 -15.5t36.5 15.5t14.5 37.5q0 21 -15 36t-37 15q-21 0 -36 -15t-15 -36zM290 621q0 -22 15.5 -37.5t37.5 -15.5q21 0 36 15.5t15 37.5q0 21 -15.5 36t-36.5 15q-22 0 -37 -15t-15 -36z" />
    <glyph glyph-name="notequal" horiz-adv-x="666" 
d="M65 414v-66h260l-55 -90h-205v-66h165l-91 -149l46 -30l109 179h293v66h-253l55 90h198v66h-158l91 149l-46 30l-109 -179h-300z" />
    <glyph glyph-name="infinity" horiz-adv-x="883" 
d="M436 217l87 -61q33 -23 72.5 -39t83.5 -16q31 0 63 9t57.5 28.5t41.5 50t16 73.5q0 46 -17 76t-42.5 47.5t-55.5 24.5t-56 7q-40 0 -80.5 -15.5t-78.5 -41.5l-84 -60l-81 56q-37 26 -79 43t-84 17q-32 0 -63.5 -9t-57.5 -28.5t-42 -50.5t-16 -74q0 -46 17 -75.5t42.5 -47
t56 -24.5t56.5 -7q43 0 81.5 14.5t78.5 42.5zM380 255l-63 -45q-27 -19 -58.5 -32t-59.5 -13q-45 0 -72 26t-27 64q0 15 5 31t16 29.5t30 22t48 8.5q28 0 53 -9.5t48 -25.5zM498 261l62 45q26 20 58 32.5t60 12.5q45 0 72 -26t27 -64q0 -15 -5 -31t-16 -29.5t-30.5 -22
t-47.5 -8.5t-52 10t-47 26z" />
    <glyph glyph-name="lessequal" horiz-adv-x="460" 
d="M42 326v-63l367 -139v74l-276 101l276 124v75zM42 107v-71h367v71h-367z" />
    <glyph glyph-name="greaterequal" horiz-adv-x="460" 
d="M409 326l-367 172v-75l276 -124l-276 -101v-74l367 139v63zM409 107h-367v-71h367v71z" />
    <glyph glyph-name="partialdiff" horiz-adv-x="522" 
d="M72 701l-40 -48q27 -3 57 -13t60 -25t58 -34t52 -39q38 -32 66 -72t42 -80q-2 1 -13.5 6.5t-39 11.5t-64.5 6q-44 0 -80.5 -14.5t-63 -41.5t-41.5 -64.5t-15 -83.5q0 -48 16.5 -89t45 -71t67.5 -47t84 -17q47 0 86.5 17t68.5 49.5t45 79.5t16 108q0 85 -30.5 160.5
t-89.5 143.5q-30 34 -67 62t-76 48t-76.5 32t-67.5 15zM260 354q17 0 36 -3t36 -7.5t31 -10.5t21 -12q1 -3 2.5 -13t3 -23t3 -27.5t1.5 -26.5q0 -82 -32.5 -131t-92.5 -49t-96 42.5t-36 114.5t33 109t90 37z" />
    <glyph glyph-name="summation" horiz-adv-x="496" 
d="M59 686l-23 -69l256 -273l-265 -281v-63h373l21 70h-302l269 275l-257 272h264l23 69h-359z" />
    <glyph glyph-name="product" horiz-adv-x="645" 
d="M24 70v-70h222v70h-69v507h290v-507h-69v-70h221v70h-72v507h72v68h-595v-68h73v-507h-73z" />
    <glyph glyph-name="pi" horiz-adv-x="552" 
d="M367 436v-354q0 -27 6 -43.5t18 -27.5q22 -21 59 -21q18 0 31 3.5t26 10.5l-16 51q-7 -5 -17 -5q-17 0 -23 10.5t-6 39.5v336h65v62h-470v-62h66v-312q0 -51 -4 -78.5t-12 -45.5h78q4 7 7 15t5 20t3 31t1 50v320h183z" />
    <glyph glyph-name="integral" horiz-adv-x="224" 
d="M155 -45l42 620q3 43 21.5 65.5t50.5 22.5q16 0 32 -6t24 -13l28 59q-13 8 -39 14.5t-47 6.5q-26 0 -47 -6.5t-39 -19.5q-25 -18 -41.5 -44t-20.5 -78l-42 -620q-3 -43 -21.5 -65t-50.5 -22q-16 0 -32 6t-24 13l-28 -60q13 -8 39 -14.5t47 -6.5q26 0 47 6.5t39 19.5
q25 18 41.5 44t20.5 78z" />
    <glyph glyph-name="Omega" horiz-adv-x="655" 
d="M484 71q61 32 94 100t33 161q0 41 -4.5 74.5t-13 62t-21 53.5t-28.5 49q-12 18 -31 38t-46 36.5t-62 27t-80 10.5q-60 0 -109.5 -21t-85.5 -61q-42 -46 -65 -106.5t-23 -148.5q0 -44 7.5 -85.5t23 -77.5t39 -65t55.5 -47h-129v-71h220v71q-24 10 -46.5 29.5t-40 53
t-28 84.5t-10.5 125q0 32 3 57t9 45t13.5 37.5t16.5 34.5q20 37 61 58.5t89 21.5q60 0 99 -28t57 -66q9 -18 16 -38t12 -44t7.5 -53.5t2.5 -67.5q0 -61 -9.5 -103.5t-26.5 -71.5t-39.5 -46.5t-47.5 -27.5v-71h220v71h-132z" />
    <glyph glyph-name="radical" horiz-adv-x="532" 
d="M208 0h71l248 695h-79l-160 -459q-20 -56 -29.5 -93t-12.5 -50q-1 7 -5.5 23.5t-10.5 38t-13.5 45t-14.5 46.5l-82 252h-120v-59h59z" />
    <glyph glyph-name="approxequal" horiz-adv-x="566" 
d="M172 498v77q0 88 68 88q20 0 40 -7.5t34 -15.5l29 55q-44 29 -110 29q-53 0 -88 -26q-8 -6 -17.5 -15.5t-18 -24t-14 -34.5t-5.5 -48v-78h-48v-59h48v-439h82v439h197v-439h82v439h114l24 59h-138v77q0 88 68 88q20 0 40 -7.5t34 -15.5l29 55q-44 29 -110 29
q-53 0 -88 -26q-8 -6 -17.5 -15.5t-18 -24t-14 -34.5t-5.5 -48v-78h-197z" />
    <glyph glyph-name="Delta" horiz-adv-x="624" 
d="M145 65l163 446l169 -446h-332zM354 588h-88l-221 -588h534z" />
    <glyph glyph-name="nonbreakingspace" horiz-adv-x="333" 
 />
    <glyph glyph-name="lozenge" horiz-adv-x="821" 
d="M656 573v-491q0 -27 5 -43t19 -28q22 -21 59 -21q16 0 25.5 2t24.5 9l-16 51l-3 -1t-7 -1q-17 0 -22.5 10.5t-5.5 39.5v473q0 66 -4.5 106t-8.5 53l-81 -16q5 -15 8 -28.5t4.5 -29.5t2 -36.5t0.5 -48.5zM172 498v77q0 88 68 88q20 0 40 -7.5t34 -15.5l29 55
q-44 29 -110 29q-53 0 -88 -26q-8 -6 -17.5 -15.5t-18 -24t-14 -34.5t-5.5 -48v-78h-48v-59h48v-439h82v439h197v-439h82v439h114l24 59h-138v77q0 88 68 88q20 0 40 -7.5t34 -15.5l29 55q-44 29 -110 29q-53 0 -88 -26q-8 -6 -17.5 -15.5t-18 -24t-14 -34.5t-5.5 -48v-78
h-197z" />
    <glyph glyph-name="apple" horiz-adv-x="1000" 
d="M50 775l80 -895l150 15l5 -95l640 35l-50 770l-110 -15l-10 100l-200 120zM535 755l30 -160l145 60l55 -680l-580 -30l-75 780zM665 690l-75 -25l-10 80zM284 205l46 4l-21 242h1l117 -234l31 3l73 250h2l21 -242l46 4l-25 288l-72 -6l-66 -226l-105 211l-73 -6z" />
    </font>
</defs>
</svg>
