<?xml version="1.0" encoding="UTF-8" standalone="no"?>
<svg
   xmlns:dc="http://purl.org/dc/elements/1.1/"
   xmlns:cc="http://creativecommons.org/ns#"
   xmlns:rdf="http://www.w3.org/1999/02/22-rdf-syntax-ns#"
   xmlns:svg="http://www.w3.org/2000/svg"
   xmlns="http://www.w3.org/2000/svg"
   viewBox="0 0 114.8 114.8"
   height="114.8"
   width="114.8"
   xml:space="preserve"
   version="1.1"
   id="svg2"><metadata
     id="metadata8"><rdf:RDF><cc:Work
         rdf:about=""><dc:format>image/svg+xml</dc:format><dc:type
           rdf:resource="http://purl.org/dc/dcmitype/StillImage" /></cc:Work></rdf:RDF></metadata><defs
     id="defs6" /><g
     transform="matrix(1.3333333,0,0,-1.3333333,0,114.8)"
     id="g10"><g
       transform="scale(0.1)"
       id="g12"><path
         id="path14"
         style="fill:#ffffff;fill-opacity:1;fill-rule:nonzero;stroke:none"
         d="m 5,290.203 850.391,0 0,283.523 -850.391,0 0,-283.523 z" /><path
         id="path16"
         style="fill:#ffffff;fill-opacity:1;fill-rule:nonzero;stroke:none"
         d="m 375.977,614.004 0,76.137 -50.219,0 0,-76.137 -47.25,0 0,192.242 47.25,0 0,-73.98 50.219,0 0,73.98 47.25,0 0,-192.242 -47.25,0" /><path
         id="path18"
         style="fill:#ffffff;fill-opacity:1;fill-rule:nonzero;stroke:none"
         d="m 536.086,763.852 -26.731,0 0,-38.875 26.731,0 c 12.969,0 20.527,9.449 20.527,19.437 0,9.988 -7.558,19.438 -20.527,19.438 z m 23.223,-149.848 -34.016,71.547 -15.938,0 0,-71.547 -47.246,0 0,192.242 76.145,0 c 42.656,0 65.605,-30.238 65.605,-61.832 0,-26.191 -16.203,-42.66 -31.32,-50.219 l 41.582,-80.191 -54.812,0" /><path
         id="path20"
         style="fill:#0060aa;fill-opacity:1;fill-rule:nonzero;stroke:none"
         d="m 76.8164,367.5 c -19.2578,0 -31.8594,4.863 -43.9219,16.926 l 9.3633,9.351 c 10.6172,-10.613 20.5195,-14.031 34.9219,-14.031 18.7187,0 30.2383,8.816 30.2383,23.762 0,6.66 -1.977,12.41 -6.117,16.012 -4.1408,3.605 -7.383,4.679 -16.7463,6.125 l -14.9336,2.339 c -10.0859,1.621 -18.0039,4.864 -23.5859,9.719 -6.4805,5.766 -9.7149,13.684 -9.7149,23.942 0,21.777 15.6563,36.183 41.0391,36.183 16.375,0 27.1756,-4.14 38.1606,-14.043 l -8.821,-8.82 c -7.9178,7.199 -16.3826,10.976 -29.8826,10.976 -17.0976,0 -26.9961,-9.535 -26.9961,-23.757 0,-6.301 1.7969,-11.34 5.7578,-14.758 3.9571,-3.422 10.6172,-5.942 17.2774,-7.02 l 14.0429,-2.164 c 12.0586,-1.797 17.9996,-4.316 23.3986,-9 7.023,-5.941 10.801,-14.762 10.801,-25.387 0,-22.5 -17.641,-36.355 -44.2816,-36.355" /><path
         id="path22"
         style="fill:#0060aa;fill-opacity:1;fill-rule:nonzero;stroke:none"
         d="m 149.719,368.586 0,128.156 79.558,0 0,-12.234 -65.879,0 0,-45.184 56.157,0 0,-12.238 -56.157,0 0,-46.266 65.879,0 0,-12.234 -79.558,0" /><path
         id="path24"
         style="fill:#0060aa;fill-opacity:1;fill-rule:nonzero;stroke:none"
         d="m 305.598,484.508 -34.2,0 0,-46.985 34.2,0 c 14.941,0 25.558,7.743 25.558,23.399 0,15.664 -10.617,23.586 -25.558,23.586 z m 25.742,-115.922 -29.168,56.879 -30.774,0 0,-56.879 -13.683,0 0,128.156 49.14,0 c 22.321,0 37.981,-13.496 37.981,-35.64 0,-18.719 -11.34,-30.957 -27.902,-34.379 l 30.421,-58.137 -16.015,0" /><path
         id="path26"
         style="fill:#0060aa;fill-opacity:1;fill-rule:nonzero;stroke:none"
         d="m 411.973,368.586 -11.161,0 -42.121,128.156 14.399,0 33.301,-103.676 33.3,103.676 14.403,0 -42.121,-128.156" /><path
         id="path28"
         style="fill:#0060aa;fill-opacity:1;fill-rule:nonzero;stroke:none"
         d="m 474.074,368.586 13.6797,0 0,128.156 -13.6797,0 0,-128.156 z" /><path
         id="path30"
         style="fill:#0060aa;fill-opacity:1;fill-rule:nonzero;stroke:none"
         d="m 564.797,367.5 c -12.609,0 -24.121,4.68 -32.766,13.32 -12.058,12.063 -12.058,24.657 -12.058,51.848 0,27.176 0,39.777 12.058,51.84 8.645,8.637 20.157,13.32 32.766,13.32 23.035,0 40.137,-14.043 44.453,-38.164 l -14.043,0 c -3.418,15.664 -14.395,25.922 -30.41,25.922 -8.469,0 -16.563,-3.242 -22.149,-9 -8.097,-8.281 -9.003,-17.106 -9.003,-43.918 0,-26.828 0.906,-35.648 9.003,-43.93 5.586,-5.761 13.68,-8.992 22.149,-8.992 16.015,0 27.351,10.254 30.781,25.918 l 13.672,0 C 605.109,381.543 587.648,367.5 564.797,367.5" /><path
         id="path32"
         style="fill:#0060aa;fill-opacity:1;fill-rule:nonzero;stroke:none"
         d="m 639.484,368.586 0,128.156 79.571,0 0,-12.234 -65.879,0 0,-45.184 56.152,0 0,-12.238 -56.152,0 0,-46.266 65.879,0 0,-12.234 -79.571,0" /><path
         id="path34"
         style="fill:#0060aa;fill-opacity:1;fill-rule:nonzero;stroke:none"
         d="m 780.43,367.5 c -19.266,0 -31.864,4.863 -43.926,16.926 l 9.367,9.351 c 10.613,-10.613 20.516,-14.031 34.91,-14.031 18.723,0 30.246,8.816 30.246,23.762 0,6.66 -1.984,12.41 -6.125,16.012 -4.14,3.605 -7.371,4.679 -16.738,6.125 l -14.941,2.339 c -10.078,1.621 -17.996,4.864 -23.575,9.719 -6.484,5.766 -9.726,13.684 -9.726,23.942 0,21.777 15.664,36.183 41.047,36.183 16.375,0 27.176,-4.14 38.152,-14.043 l -8.816,-8.82 c -7.922,7.199 -16.379,10.976 -29.875,10.976 -17.098,0 -27,-9.535 -27,-23.757 0,-6.301 1.797,-11.34 5.761,-14.758 3.954,-3.422 10.614,-5.942 17.274,-7.02 l 14.043,-2.164 c 12.062,-1.797 18,-4.316 23.398,-9 7.024,-5.941 10.801,-14.762 10.801,-25.387 0,-22.5 -17.637,-36.355 -44.277,-36.355" /><path
         id="path36"
         style="fill:#ffffff;fill-opacity:1;fill-rule:nonzero;stroke:none"
         d="m 197.242,49.0547 0,36.7148 73.711,113.4025 -70.473,0 0,42.117 127.172,0 0,-36.719 -73.98,-113.3981 73.98,0 0,-42.1172 -130.41,0" /><path
         id="path38"
         style="fill:#ffffff;fill-opacity:1;fill-rule:nonzero;stroke:none"
         d="m 424.582,47.4336 c -39.957,0 -72.629,27 -72.629,69.1214 l 0,124.734 47.25,0 0,-123.66 c 0,-17.8165 9.719,-28.0782 25.379,-28.0782 15.664,0 25.926,10.2617 25.926,28.0782 l 0,123.66 47.246,0 0,-124.734 c 0,-42.1214 -33.211,-69.1214 -73.172,-69.1214" /><path
         id="path40"
         style="fill:#ffffff;fill-opacity:1;fill-rule:nonzero;stroke:none"
         d="M 655.969,69.0312 C 639.504,52.0195 621.133,47.4336 600.078,47.4336 c -22.41,0 -39.422,7.5547 -53.457,21.5976 -20.254,20.2461 -19.441,47.2458 -19.441,76.1368 0,28.894 -0.813,55.894 19.441,76.141 14.035,14.043 30.234,21.601 53.457,21.601 49.414,0 70.469,-32.129 75.059,-63.722 l -47.52,0 c -3.777,14.582 -11.336,21.605 -27.539,21.605 -8.64,0 -15.117,-3.781 -18.633,-8.371 -4.316,-5.676 -7.019,-12.149 -7.019,-47.254 0,-35.102 2.703,-41.848 7.019,-47.5235 3.516,-4.5898 9.993,-8.0937 18.633,-8.0937 9.992,0 16.738,2.9687 21.055,7.5586 5.402,5.4026 7.297,13.2346 7.297,20.5196 l 0,2.703 -28.352,0 0,39.414 75.332,0 0,-26.73 c 0,-31.043 -4.863,-49.1371 -19.441,-63.9848" /><path
         id="path42"
         style="fill:none;stroke:#ffffff;stroke-width:10;stroke-linecap:butt;stroke-linejoin:miter;stroke-miterlimit:4;stroke-dasharray:none;stroke-opacity:1"
         d="m 5,5 851.016,0 0,851.016 L 5,856.016 5,5 Z" /></g></g></svg>